<svg width="100" height="30" viewBox="0 0 100 30" fill="none" xmlns="http://www.w3.org/2000/svg">
<path d="M100 25.8206C100 27.4099 98.7126 28.6972 97.1204 28.6972H2.88333C1.29179 28.6972 0 27.4099 0 25.8206V2.88038C0 1.29185 1.29185 0 2.88333 0H97.1196C98.7126 0 99.9993 1.29185 99.9993 2.88038L100 25.8206Z" fill="white"/>
<path d="M100 26.9928C100 28.6543 98.7126 30 97.1204 30H2.88333C1.29179 30 0 28.6543 0 26.9928V3.01115C0 1.3505 1.29185 0 2.88333 0H97.1196C98.7126 0 99.9993 1.3505 99.9993 3.01115L100 26.9928Z" fill="#18216D"/>
<path d="M21.9601 14.1909C21.9383 11.7701 23.9422 10.5924 24.0338 10.5376C22.899 8.88298 21.14 8.65691 20.5219 8.63888C19.0445 8.48341 17.6114 9.5229 16.8589 9.5229C16.0913 9.5229 14.9323 8.6539 13.6833 8.67944C12.076 8.70423 10.5724 9.63481 9.74765 11.0799C8.04577 14.0264 9.31503 18.3563 10.9457 20.738C11.7613 21.9052 12.7145 23.2068 13.962 23.161C15.1825 23.1114 15.6384 22.3836 17.1112 22.3836C18.5705 22.3836 18.9987 23.161 20.2709 23.1317C21.5809 23.1114 22.4055 21.96 23.1927 20.7831C24.1353 19.4469 24.5138 18.1295 24.5289 18.0619C24.4988 18.0514 21.9857 17.0915 21.9601 14.1909ZM19.5567 7.07213C20.213 6.25121 20.6623 5.13435 20.5376 4.00098C19.5874 4.04304 18.3993 4.65817 17.715 5.46107C17.1096 6.16859 16.5688 7.32825 16.7085 8.41882C17.7759 8.49843 18.8717 7.88029 19.5567 7.07213Z" fill="white"/>
<path d="M39.6381 22.9938H37.9324L36.998 20.0578H33.7503L32.8603 22.9938H31.1997L34.4181 12.9984H36.4054L39.6381 22.9938ZM36.7164 18.826L35.8715 16.216C35.7821 15.9494 35.6139 15.3215 35.3674 14.3331H35.3375C35.2383 14.7582 35.0798 15.3861 34.8628 16.216L34.0321 18.826H36.7164ZM47.8985 19.3015C47.8985 20.5272 47.5658 21.4961 46.8995 22.2075C46.3032 22.8405 45.5619 23.1568 44.6778 23.1568C43.7232 23.1568 43.0367 22.8165 42.6198 22.1346V25.9163H41.0185V18.1553C41.0185 17.3854 40.9983 16.5961 40.9593 15.7864H42.3675L42.4569 16.9288H42.4869C43.0209 16.0681 43.8313 15.6376 44.9189 15.6376C45.7691 15.6376 46.4789 15.9734 47.0467 16.6456C47.6138 17.3194 47.8985 18.2041 47.8985 19.3015ZM46.2671 19.3601C46.2671 18.6585 46.1094 18.0802 45.7924 17.6243C45.4461 17.1504 44.9812 16.9131 44.3984 16.9131C44.0033 16.9131 43.6443 17.0452 43.3236 17.3059C43.0021 17.5687 42.7918 17.912 42.6935 18.3371C42.6439 18.5354 42.6192 18.6969 42.6192 18.8246V20.027C42.6192 20.5505 42.7799 20.993 43.1013 21.355C43.4228 21.7155 43.8404 21.8964 44.3541 21.8964C44.9573 21.8964 45.4267 21.6629 45.7624 21.1994C46.0988 20.7345 46.2671 20.1216 46.2671 19.3601ZM56.1881 19.3015C56.1881 20.5272 55.8553 21.4961 55.1891 22.2075C54.592 22.8405 53.8515 23.1568 52.9667 23.1568C52.0121 23.1568 51.3256 22.8165 50.9087 22.1346V25.9163H49.3074V18.1553C49.3074 17.3854 49.2872 16.5961 49.2481 15.7864H50.6564L50.7458 16.9288H50.7758C51.3091 16.0681 52.1195 15.6376 53.2077 15.6376C54.0572 15.6376 54.767 15.9734 55.3363 16.6456C55.9027 17.3194 56.1881 18.2041 56.1881 19.3015ZM54.556 19.3601C54.556 18.6585 54.3976 18.0802 54.0805 17.6243C53.7343 17.1504 53.2709 16.9131 52.688 16.9131C52.293 16.9131 51.934 17.0452 51.6117 17.3059C51.2903 17.5687 51.0808 17.912 50.9823 18.3371C50.9335 18.5354 50.9072 18.6969 50.9072 18.8246V20.027C50.9072 20.5505 51.0687 20.993 51.3887 21.355C51.7101 21.7147 52.1277 21.8964 52.643 21.8964C53.2468 21.8964 53.7162 21.6629 54.0513 21.1994C54.3877 20.7345 54.556 20.1216 54.556 19.3601ZM65.4564 20.19C65.4564 21.041 65.1589 21.7327 64.5679 22.2667C63.9174 22.8496 63.0094 23.1417 61.8452 23.1417C60.7696 23.1417 59.9074 22.9344 59.257 22.5191L59.6273 21.1844C60.3295 21.6005 61.1009 21.8078 61.9406 21.8078C62.5444 21.8078 63.0139 21.6711 63.3488 21.4C63.6845 21.1281 63.8543 20.7646 63.8543 20.3109C63.8543 19.9046 63.7139 19.5643 63.4382 19.2873C63.1611 19.0109 62.7029 18.7532 62.0593 18.5167C60.3092 17.864 59.4335 16.9093 59.4335 15.6535C59.4335 14.8334 59.7429 14.1619 60.3604 13.6369C60.9777 13.1126 61.7964 12.8506 62.8149 12.8506C63.7244 12.8506 64.4823 13.0091 65.0839 13.3253L64.6821 14.6306C64.1158 14.3241 63.4765 14.1709 62.7615 14.1709C62.1968 14.1709 61.7536 14.3099 61.4366 14.5863C61.17 14.8334 61.0348 15.1346 61.0348 15.4921C61.0348 15.8864 61.1888 16.2139 61.4952 16.4708C61.7611 16.7073 62.2463 16.965 62.9478 17.2414C63.8085 17.5884 64.4408 17.9925 64.8457 18.4566C65.2536 18.9207 65.4564 19.4998 65.4564 20.19ZM70.7643 16.9881H68.9992V20.4874C68.9992 21.3774 69.3102 21.8213 69.9336 21.8213C70.2197 21.8213 70.4571 21.7972 70.6449 21.747L70.6891 22.963C70.3737 23.081 69.9583 23.1402 69.4438 23.1402C68.8114 23.1402 68.3172 22.9472 67.9605 22.5611C67.6052 22.1751 67.4265 21.5284 67.4265 20.6181V16.9851H66.3749V15.7834H67.4265V14.4638L68.9992 13.9891V15.7834H70.7643V16.9881ZM78.7121 19.3308C78.7121 20.4385 78.3952 21.3481 77.7628 22.0594C77.1011 22.7917 76.2208 23.1568 75.1235 23.1568C74.0645 23.1568 73.2225 22.806 72.5946 22.1052C71.9667 21.4029 71.6528 20.5182 71.6528 19.4509C71.6528 18.334 71.9772 17.4193 72.6239 16.708C73.2721 15.996 74.1449 15.64 75.2422 15.64C76.2997 15.64 77.1492 15.9915 77.7921 16.693C78.4065 17.3735 78.7121 18.2522 78.7121 19.3308ZM77.0523 19.3676C77.0523 18.7073 76.9096 18.141 76.6234 17.6671C76.2877 17.0947 75.807 16.8086 75.1843 16.8086C74.5429 16.8086 74.051 17.0947 73.716 17.6671C73.4291 18.141 73.2863 18.7171 73.2863 19.3975C73.2863 20.0586 73.4291 20.6263 73.716 21.0988C74.0622 21.6711 74.5452 21.9573 75.1708 21.9573C75.7829 21.9573 76.2629 21.6651 76.6099 21.0845C76.9044 20.5993 77.0523 20.0293 77.0523 19.3676ZM83.9194 17.1947C83.7609 17.1653 83.5912 17.1503 83.4147 17.1503C82.8514 17.1503 82.4158 17.3622 82.1094 17.7887C81.8435 18.1643 81.7098 18.639 81.7098 19.212V22.9937H80.1085V18.0562C80.1085 17.2262 80.0927 16.4692 80.0619 15.7872H81.4567L81.5153 17.1661H81.5596C81.7293 16.6922 81.9952 16.3099 82.3602 16.0237C82.717 15.7661 83.1022 15.6376 83.5177 15.6376C83.6656 15.6376 83.7993 15.6482 83.918 15.667L83.9194 17.1947ZM91.0809 19.0491C91.0809 19.336 91.0621 19.5778 91.0223 19.7754H86.2184C86.2364 20.4874 86.4693 21.0327 86.9154 21.4082C87.3203 21.7433 87.8437 21.9115 88.4867 21.9115C89.1979 21.9115 89.8468 21.7988 90.4304 21.5712L90.6813 22.6821C89.9993 22.9795 89.1942 23.1275 88.2651 23.1275C87.1476 23.1275 86.2702 22.7984 85.6318 22.142C84.9949 21.4849 84.6758 20.6016 84.6758 19.4952C84.6758 18.4091 84.9724 17.5041 85.5665 16.7824C86.1884 16.0117 87.0288 15.6264 88.0864 15.6264C89.1251 15.6264 89.9115 16.0117 90.4455 16.7824C90.8683 17.393 91.0809 18.1501 91.0809 19.0491ZM89.5539 18.6338C89.5652 18.1583 89.4601 17.749 89.243 17.4027C88.9658 16.9566 88.5392 16.7343 87.9677 16.7343C87.4442 16.7343 87.0176 16.9513 86.6931 17.387C86.4265 17.7332 86.268 18.1493 86.2192 18.6323L89.5539 18.6338Z" fill="white"/>
<path d="M35.9442 9.42034H35.1051L34.6462 7.97752H33.0502L32.6123 9.42034H31.7959L33.3777 4.50755H34.3541L35.9442 9.42034ZM34.508 7.37216L34.0927 6.08931C34.0491 5.95788 33.9688 5.65219 33.8448 5.16399H33.8298C33.7787 5.37504 33.7059 5.68148 33.5962 6.08931L33.1884 7.37216H34.508ZM39.8993 5.87826L38.5579 9.42034H37.7924L36.4946 5.87826H37.3404L37.9457 7.75145C38.0479 8.06465 38.135 8.36358 38.2003 8.64749H38.2221C38.2808 8.39287 38.3678 8.09394 38.4767 7.75145L39.0746 5.87826H39.8993ZM42.7549 9.42034L42.6963 9.01245H42.6744C42.4341 9.34067 42.0841 9.50065 41.6395 9.50065C41.0056 9.50065 40.5534 9.05601 40.5534 8.45815C40.5534 7.5839 41.3112 7.13175 42.6234 7.13175V7.0664C42.6234 6.59998 42.3755 6.3664 41.8873 6.3664C41.5373 6.3664 41.2309 6.45428 40.962 6.62928L40.8019 6.11178C41.1302 5.90749 41.5381 5.80534 42.0194 5.80534C42.9448 5.80534 43.4119 6.29355 43.4119 7.2707V8.57532C43.4119 8.93283 43.427 9.20998 43.463 9.42103L42.7549 9.42034ZM42.6452 7.65606C41.7703 7.65606 41.3331 7.86787 41.3331 8.37034C41.3331 8.74212 41.5592 8.92388 41.8724 8.92388C42.2734 8.92388 42.6452 8.61819 42.6452 8.20285V7.65606ZM45.1651 5.29467C44.903 5.29467 44.6987 5.09038 44.6987 4.82074C44.6987 4.55111 44.9098 4.35432 45.1801 4.35432C45.4497 4.35432 45.6683 4.55111 45.6609 4.82074C45.6609 5.1054 45.4573 5.29467 45.1651 5.29467ZM45.5737 9.42034H44.7865V5.87826H45.5737V9.42034ZM47.7593 9.42034H46.9722V4.25293H47.7593V9.42034ZM51.1046 9.42034L51.046 9.01245H51.0242C50.7839 9.34067 50.4339 9.50065 49.9893 9.50065C49.3553 9.50065 48.9032 9.05601 48.9032 8.45815C48.9032 7.5839 49.661 7.13175 50.9731 7.13175V7.0664C50.9731 6.59998 50.7253 6.3664 50.237 6.3664C49.887 6.3664 49.5806 6.45428 49.3117 6.62928L49.1511 6.11103C49.4793 5.90674 49.8871 5.80459 50.3686 5.80459C51.2939 5.80459 51.761 6.29279 51.761 7.26995V8.57457C51.761 8.93208 51.7768 9.20923 51.8114 9.42028H51.1046V9.42034ZM50.995 7.65606C50.1199 7.65606 49.6828 7.86787 49.6828 8.37034C49.6828 8.74212 49.9088 8.92388 50.222 8.92388C50.6231 8.92388 50.995 8.61819 50.995 8.20285V7.65606ZM54.9502 9.50071C54.4477 9.50071 54.0766 9.28891 53.8363 8.87356H53.8205L53.7754 9.42034H53.1047C53.1265 9.13644 53.134 8.81498 53.134 8.46572V4.25293H53.9219V6.39651H53.9369C54.1704 6.00294 54.5484 5.80616 55.0665 5.80616C55.9198 5.80616 56.5176 6.53545 56.5176 7.59898C56.5176 8.69856 55.8537 9.50071 54.9502 9.50071ZM54.7901 6.4243C54.3372 6.4243 53.9227 6.81786 53.9227 7.36464V7.98428C53.9227 8.47248 54.2952 8.87356 54.7767 8.87356C55.3663 8.87356 55.717 8.39287 55.717 7.62752C55.7162 6.91325 55.3512 6.4243 54.7901 6.4243ZM58.4682 9.42034H57.6819V4.25293H58.4682V9.42034ZM62.7531 7.83857H60.3902C60.406 8.50929 60.8491 8.88783 61.5055 8.88783C61.8555 8.88783 62.1762 8.82925 62.4602 8.72034L62.5826 9.26712C62.2476 9.41283 61.854 9.48569 61.3951 9.48569C60.2865 9.48569 59.6308 8.78568 59.6308 7.70038C59.6308 6.61432 60.3024 5.7979 61.3065 5.7979C62.2101 5.7979 62.7794 6.46861 62.7794 7.48181C62.7824 7.62001 62.7756 7.74394 62.7531 7.83857ZM62.0313 7.27752C62.0313 6.73073 61.7541 6.34468 61.2509 6.34468C60.7987 6.34468 60.4428 6.73825 60.3902 7.27752H62.0313ZM67.5239 9.50071C66.4889 9.50071 65.8182 8.72785 65.8182 7.67859C65.8182 6.58503 66.5032 5.80541 67.5833 5.80541C68.6024 5.80541 69.2889 6.54146 69.2889 7.62076C69.289 8.72785 68.5814 9.50071 67.5239 9.50071ZM67.554 6.38073C66.9854 6.38073 66.6212 6.9125 66.6212 7.65606C66.6212 8.38536 66.993 8.91712 67.5465 8.91712C68.1001 8.91712 68.471 8.34856 68.471 7.64104C68.4718 6.92001 68.1075 6.38073 67.554 6.38073ZM73.5205 9.42034H72.7342V7.38643C72.7342 6.76003 72.4938 6.44608 72.0199 6.44608C71.5535 6.44608 71.2321 6.84715 71.2321 7.31357V9.42034H70.4457V6.89071C70.4457 6.57752 70.4374 6.24178 70.4164 5.87751H71.1089L71.1457 6.4243H71.1675C71.3777 6.04575 71.8089 5.80466 72.2896 5.80466C73.0324 5.80466 73.5206 6.37322 73.5206 7.29855V9.42034H73.5205ZM78.6707 6.46861H77.8047V8.18858C77.8047 8.62646 77.9572 8.84502 78.2628 8.84502C78.4018 8.84502 78.5189 8.83 78.6128 8.80822L78.6347 9.40607C78.4814 9.46472 78.2764 9.49395 78.0232 9.49395C77.4028 9.49395 77.0326 9.15146 77.0326 8.25467V6.46861H76.5158V5.87826H77.0326V5.22933L77.8047 4.99575V5.87751H78.6707V6.46861ZM82.8392 9.42034H82.0513V7.40145C82.0513 6.76754 81.8109 6.44683 81.3371 6.44683C80.9292 6.44683 80.5507 6.72398 80.5507 7.28503V9.42034H79.7628V4.25293H80.5507V6.38073H80.5657C80.8136 5.99468 81.1711 5.80466 81.63 5.80466C82.3803 5.80466 82.8392 6.38749 82.8392 7.31357V9.42034ZM86.8612 7.83857H84.4991C84.5141 8.50929 84.9572 8.88783 85.6138 8.88783C85.9645 8.88783 86.2844 8.82925 86.5684 8.72034L86.6916 9.26712C86.3565 9.41283 85.9623 9.48569 85.5033 9.48569C84.3948 9.48569 83.7391 8.78568 83.7391 7.70038C83.7391 6.61432 84.4106 5.7979 85.4147 5.7979C86.3183 5.7979 86.8876 6.46861 86.8876 7.48181C86.8905 7.62001 86.8829 7.74394 86.8612 7.83857ZM86.1394 7.27752C86.1394 6.73073 85.863 6.34468 85.3598 6.34468C84.9069 6.34468 84.5509 6.73825 84.499 7.27752H86.1394Z" fill="white"/>
</svg>
