<svg width="139" height="33" viewBox="0 0 139 33" fill="none" xmlns="http://www.w3.org/2000/svg">
<g clip-path="url(#clip0_46_1005)">
<path opacity="0.8" d="M49.5344 11.7667V13.6023H49.5905C50.251 12.6195 51.3476 11.4621 53.7781 11.4621C55.669 11.4621 57.1196 12.4246 57.7413 13.8785H57.7974C58.3284 13.1434 58.9371 12.587 59.6192 12.1931C60.4265 11.7261 61.3245 11.458 62.4556 11.458C65.0157 11.458 67.2822 13.1231 67.2822 17.3224V25.2863H63.3795V17.8787C63.3795 15.7507 62.611 14.5202 61.0137 14.5202C59.8437 14.5202 58.9932 15.2593 58.6695 16.169C58.5572 16.4817 58.5054 16.9081 58.5054 17.2655V25.2904H54.6027V17.5782C54.6027 15.771 53.8645 14.5161 52.2887 14.5161C51.0281 14.5161 50.2381 15.4502 49.9143 16.2502C49.7761 16.5914 49.733 16.9853 49.733 17.3549V25.2863H45.826V11.7667H49.5344ZM87.426 11.7667V14.3171H87.5339C88.2505 12.3677 89.9515 11.4621 91.4452 11.4621C91.8208 11.4621 92.028 11.4905 92.3302 11.5474V15.0887C91.9719 15.04 91.6395 14.9913 91.1732 14.9913C89.4809 14.9913 88.3023 15.9172 88.0045 17.367C87.9397 17.6676 87.9181 17.9925 87.9181 18.3661V25.2904H83.9118V11.7667H87.426ZM97.7698 7.28723V11.5433H101.154V14.9872H97.7698V20.0677C97.7698 21.7125 98.2145 22.5085 99.5356 22.5085C100.157 22.5085 100.615 22.4354 101.012 22.342L101.064 25.197C100.533 25.3838 99.4017 25.5868 98.2534 25.5868C96.9021 25.5868 95.7753 25.1442 95.0889 24.4578C94.3032 23.674 93.9405 22.3907 93.9405 20.5632V7.28723H97.7698ZM43.1061 25.2863H39.2207V7.28723H43.1061V25.2863ZM32.745 20.4576C32.745 20.7053 32.7234 20.9652 32.65 21.1886C32.3478 22.1267 31.316 22.9186 30.0295 22.9186C28.9545 22.9186 28.0998 22.346 28.0998 21.1317C28.0998 19.2758 30.2756 18.76 32.7493 18.7722V20.4576H32.745ZM36.6261 17.2208C36.6261 14.1547 35.236 11.4621 30.5346 11.4621C28.1213 11.4621 26.2045 12.0997 25.1598 12.6683L25.9239 15.1293C26.878 14.5608 28.402 14.0937 29.8439 14.0937C32.2313 14.0897 32.6198 15.3649 32.6198 16.1812V16.3761C27.4176 16.368 24.1323 18.0615 24.1323 21.5135C24.1323 23.6212 25.803 25.5949 28.7128 25.5949C30.5044 25.5949 31.9981 24.9249 32.8961 23.8486H32.9824C32.9824 23.8486 33.5782 26.1838 36.8506 25.2904C36.6779 24.3157 36.6218 23.2801 36.6218 22.0333V17.2208H36.6261ZM4.61448 7.28723C5.01598 9.19192 6.1557 14.7232 6.1557 14.7232C6.63491 16.9975 7.07526 19.3814 7.40768 21.2657H7.46812C7.7919 19.2636 8.30133 17.367 8.84529 15.0197L10.7664 7.28723H15.0188L16.8147 15.2187C17.2853 17.4239 17.6609 19.1255 17.9588 21.1764H18.0149C18.3387 19.1052 18.7618 17.3345 19.2237 15.0684L20.9506 7.28723H25.0303L19.9749 25.2863C16.7543 25.9483 15.5196 24.7299 15.0792 22.7968C14.6389 20.8596 13.7755 17.1762 13.7755 17.1762C13.3308 15.1578 12.9854 13.7364 12.7437 11.6652H12.6832C12.3379 13.7161 11.9752 15.1537 11.4399 17.1721L9.32017 25.2904C6.03051 25.9077 4.89078 24.9939 4.26048 22.5125C3.71652 20.3885 0.323242 7.29129 0.323242 7.29129H4.61448V7.28723ZM77.4361 20.4576C77.4361 20.7053 77.4145 20.9652 77.3411 21.1886C77.0389 22.1267 76.0071 22.9186 74.7206 22.9186C73.6456 22.9186 72.7908 22.346 72.7908 21.1317C72.7908 19.2758 74.9667 18.76 77.4404 18.7722V20.4576H77.4361ZM81.3172 17.2208C81.3172 14.1547 79.9271 11.4621 75.2257 11.4621C72.8124 11.4621 70.8956 12.0997 69.8509 12.6683L70.615 15.1293C71.5691 14.5608 73.093 14.0937 74.535 14.0937C76.918 14.0897 77.3109 15.3649 77.3109 16.1812V16.3761C72.113 16.368 68.8277 18.0615 68.8277 21.5135C68.8277 23.6212 70.5027 25.5949 73.4082 25.5949C75.1955 25.5949 76.6935 24.9249 77.5872 23.8486H77.6778C77.6778 23.8486 78.2736 26.1838 81.546 25.2904C81.3733 24.3157 81.3172 23.2801 81.3172 22.0333V17.2208Z" fill="#041E42"/>
<path d="M116.905 19.0873C117.288 19.7446 117.262 20.4782 116.853 20.8132L109.787 25.6943C109.051 26.1141 107.95 25.6053 107.326 24.5408C106.697 23.4722 106.809 22.2805 107.545 21.8607L115.368 18.2731C115.859 18.0865 116.522 18.43 116.905 19.0873ZM126.204 19.0873C126.591 18.43 127.25 18.0907 127.74 18.2688L135.568 21.8565C136.304 22.2763 136.411 23.4679 135.787 24.5366C135.159 25.601 134.053 26.1057 133.322 25.6901L126.256 20.809C125.851 20.4782 125.821 19.7403 126.204 19.0873ZM121.552 21.7335C122.323 21.7335 122.955 22.1236 123.041 22.6368L123.803 31.1097C123.803 31.9494 122.809 32.6364 121.557 32.6364C120.309 32.6364 119.31 31.9494 119.31 31.1097L120.068 22.6368C120.154 22.1236 120.786 21.7335 121.552 21.7335ZM126.256 12.0731L133.322 7.18784C134.053 6.76801 135.159 7.27265 135.787 8.34131C136.411 9.40997 136.304 10.6016 135.568 11.0214L127.74 14.6133C127.25 14.7914 126.587 14.4522 126.204 13.7949C125.821 13.1376 125.851 12.4039 126.256 12.0731ZM115.368 14.6133L107.545 11.0214C106.814 10.6016 106.702 9.40997 107.326 8.34131C107.95 7.27265 109.056 6.76801 109.787 7.18784L116.853 12.0731C117.262 12.3997 117.288 13.1376 116.905 13.7949C116.522 14.4522 115.859 14.7914 115.368 14.6133ZM120.068 10.2454L119.31 1.77245C119.31 0.932784 120.304 0.245789 121.557 0.245789C122.809 0.245789 123.803 0.932784 123.803 1.77245L123.041 10.2454C122.955 10.7543 122.323 11.1487 121.552 11.1487C120.786 11.1487 120.154 10.7543 120.068 10.2454ZM137.698 25.6604V25.4484H137.892C137.956 25.4484 137.999 25.4908 137.999 25.5544C137.999 25.6137 137.956 25.6604 137.892 25.6604H137.698ZM137.539 26.0463C137.539 26.0675 137.556 26.0887 137.582 26.0887H137.664C137.685 26.0887 137.707 26.0675 137.707 26.0463V25.8046H137.84L137.948 26.059C137.956 26.076 137.969 26.0887 137.986 26.0887H138.085C138.116 26.0887 138.137 26.059 138.124 26.0293C138.085 25.953 138.047 25.8724 138.008 25.7918C138.072 25.7706 138.171 25.707 138.171 25.5544C138.171 25.3932 138.038 25.2999 137.905 25.2999H137.582C137.56 25.2999 137.539 25.3211 137.539 25.3423V26.0463ZM137.19 25.6943C137.19 25.3508 137.474 25.0709 137.823 25.0709C138.171 25.0709 138.455 25.3466 138.455 25.6943C138.455 26.0378 138.176 26.3177 137.823 26.3177C137.47 26.3177 137.19 26.0378 137.19 25.6943ZM137.04 25.6943C137.04 26.1184 137.388 26.4661 137.823 26.4661C138.253 26.4661 138.606 26.1184 138.606 25.6943C138.606 25.2702 138.253 24.9225 137.823 24.9225C137.388 24.9225 137.04 25.2702 137.04 25.6943Z" fill="#FFC124"/>
</g>
<defs>
<clipPath id="clip0_46_1005">
<rect width="138.283" height="32.3906" fill="white" transform="translate(0.323242 0.245789)"/>
</clipPath>
</defs>
</svg>
