<svg width="113" height="35" viewBox="0 0 113 35" fill="none" xmlns="http://www.w3.org/2000/svg">
<g clip-path="url(#clip0_46_979)">
<path d="M32.1409 24.7219C31.965 24.2968 31.8001 23.8499 31.6242 23.4683L30.8108 21.6479L30.7778 21.6152C28.3595 16.3829 25.7763 11.0634 23.0393 5.83105L22.9293 5.61304C22.6545 5.1007 22.3797 4.53387 22.0939 4.01064C21.7422 3.3893 21.4014 2.72436 20.8408 2.09212C20.2944 1.43059 19.6066 0.89761 18.8273 0.531638C18.0479 0.165666 17.1963 -0.0241699 16.334 -0.0241699C15.4716 -0.0241699 14.6201 0.165666 13.8407 0.531638C13.0613 0.89761 12.3736 1.43059 11.8271 2.09212C11.3105 2.72436 10.9258 3.3893 10.574 4.01064C10.2992 4.57747 10.0244 5.13341 9.73861 5.64574L9.62868 5.86375C6.93558 11.0961 4.30842 16.4156 1.89012 21.6479L1.82417 21.7133C1.58234 22.2802 1.29654 22.8688 1.02173 23.501C0.845856 23.8826 0.669979 24.2968 0.494103 24.7546C0.0192726 25.9535 -0.132356 27.2543 0.0541616 28.529C0.240679 29.8036 0.758904 31.0081 1.55776 32.0236C2.35662 33.0392 3.40855 33.8308 4.60986 34.3204C5.81117 34.8101 7.12041 34.9809 8.40854 34.8159C9.64349 34.6547 10.8326 34.2468 11.9041 33.6169C13.3331 32.8211 14.7071 31.6656 16.246 29.9978C17.785 31.6656 19.192 32.8211 20.588 33.6278C21.9305 34.4092 23.4508 34.8405 25.0069 34.8813C26.8089 34.8888 28.5528 34.2494 29.9166 33.0813C31.2803 31.9133 32.1719 30.2953 32.4267 28.5263C32.7211 27.255 32.6215 25.9252 32.1409 24.711V24.7219ZM16.356 26.5314C14.4653 24.1333 13.2341 21.9313 12.8164 20.0455C12.6434 19.3467 12.6061 18.6216 12.7065 17.909C12.7835 17.3531 12.9923 16.8625 13.2781 16.4483C13.9377 15.4999 15.0918 14.9113 16.356 14.9113C16.9563 14.8931 17.5518 15.023 18.089 15.2894C18.6262 15.5558 19.0883 15.9502 19.4338 16.4374C19.7196 16.8734 19.9284 17.3531 19.9944 17.909C20.1043 18.5412 20.0604 19.2716 19.8845 20.0455C19.4668 21.8986 18.2356 24.1224 16.356 26.5314ZM30.3601 28.1447C30.2352 29.0429 29.8752 29.8929 29.3159 30.6101C28.7566 31.3273 28.0175 31.8867 27.1724 32.2325C26.3369 32.5813 25.4136 32.6794 24.5122 32.5813C23.6328 32.4723 22.7535 32.1889 21.8521 31.6656C20.3555 30.7484 19.0098 29.6087 17.8619 28.2864C20.1703 25.4523 21.5663 22.8688 22.0939 20.5688C22.3467 19.4787 22.3797 18.4976 22.2698 17.5929C22.1325 16.7353 21.8101 15.9173 21.3245 15.1947C20.77 14.4113 20.03 13.7749 19.1693 13.3415C18.3087 12.9081 17.354 12.6911 16.3889 12.7094C14.3554 12.7094 12.5416 13.6468 11.4424 15.1838C10.9476 15.9045 10.6278 16.7291 10.5081 17.5929C10.3652 18.5085 10.3981 19.5223 10.6839 20.5688C11.2116 22.8688 12.6406 25.485 14.916 28.3082C13.7876 29.6557 12.4387 30.8054 10.9258 31.7092C10.0134 32.2325 9.14502 32.505 8.26564 32.614C6.89808 32.7877 5.51664 32.4191 4.4216 31.5884C3.32656 30.7576 2.60644 29.5318 2.41775 28.1774C2.30783 27.3054 2.38477 26.4333 2.73653 25.4523C2.84645 25.1034 3.01133 24.7546 3.18721 24.3404C3.42904 23.7736 3.71484 23.1849 3.98965 22.5963L4.03362 22.52C6.40795 17.3204 9.00212 12.0117 11.6952 6.81211L11.8052 6.5941C12.08 6.07086 12.3548 5.51493 12.6406 4.9917C12.9264 4.43576 13.2341 3.90163 13.6299 3.4656C13.9724 3.06012 14.4004 2.73403 14.8837 2.51029C15.3671 2.28654 15.894 2.17059 16.4274 2.17059C16.9608 2.17059 17.4877 2.28654 17.9711 2.51029C18.4544 2.73403 18.8824 3.06012 19.2249 3.4656C19.6097 3.90163 19.9284 4.43576 20.2142 4.9917C20.4891 5.51493 20.7639 6.08177 21.0497 6.5941L21.1596 6.81211C23.8417 12.0117 26.4359 17.3204 28.8542 22.52L28.8872 22.5527C29.173 23.1195 29.4148 23.7518 29.6896 24.2968C29.8655 24.7219 30.0413 25.0598 30.1513 25.4196C30.3601 26.4006 30.47 27.2727 30.3601 28.1447ZM45.6614 26.2916C44.8331 26.3036 44.0126 26.1306 43.261 25.7852C42.5093 25.4399 41.8457 24.9312 41.3194 24.2968C40.1367 22.9451 39.509 21.2022 39.5606 19.4133C39.5426 17.5855 40.1905 15.8126 41.3854 14.4208C41.9381 13.7783 42.6261 13.2638 43.4009 12.9135C44.1758 12.5632 45.0187 12.3856 45.8702 12.3933C46.6715 12.3715 47.4652 12.5522 48.1766 12.9183C48.8881 13.2844 49.494 13.824 49.9374 14.4862L50.0473 12.7748H53.257V25.9428H50.0363L49.9264 24.0243C49.4693 24.7314 48.8375 25.3108 48.091 25.7077C47.3446 26.1045 46.5082 26.3055 45.6614 26.2916ZM46.4968 23.1522C47.1343 23.1522 47.6949 22.9778 48.2226 22.6617C48.7062 22.3129 49.1019 21.855 49.4097 21.2991C49.6845 20.7432 49.8274 20.0782 49.8274 19.337C49.8703 18.6932 49.7439 18.0494 49.4607 17.4685C49.1774 16.8877 48.747 16.3897 48.2116 16.0232C47.6971 15.7053 47.103 15.5368 46.4968 15.5368C45.8906 15.5368 45.2965 15.7053 44.782 16.0232C44.2983 16.372 43.9026 16.8298 43.5948 17.3858C43.3041 17.9989 43.1611 18.6706 43.1771 19.3479C43.1343 19.9917 43.2606 20.6355 43.5439 21.2163C43.8271 21.7972 44.2575 22.2952 44.793 22.6617C45.3096 22.9778 45.8702 23.1522 46.4968 23.1522ZM58.7532 9.22116C58.7532 9.60268 58.6872 9.9515 58.5113 10.2349C58.3355 10.5074 58.0936 10.7582 57.7749 10.9326C57.4561 11.107 57.1153 11.1724 56.7636 11.1724C56.4118 11.1724 56.0601 11.107 55.7413 10.9326C55.4398 10.7661 55.1863 10.526 55.0048 10.2349C54.8346 9.9244 54.7511 9.57441 54.763 9.22116C54.763 8.82874 54.8399 8.47991 55.0048 8.2074C55.1807 7.88038 55.4335 7.68416 55.7413 7.50975C56.0601 7.33534 56.4008 7.25904 56.7636 7.25904C57.1135 7.25104 57.4595 7.33322 57.7677 7.49754C58.076 7.66186 58.336 7.90269 58.5223 8.1965C58.6823 8.5143 58.7615 8.86606 58.7532 9.22116ZM55.0158 25.8992V12.753H58.5113V25.921H55.0048L55.0158 25.8992ZM67.8548 16.1976V16.2412C67.6899 16.1649 67.47 16.1322 67.3052 16.0995C67.0853 16.0559 66.9094 16.0559 66.7006 16.0559C65.7223 16.0559 64.9858 16.3393 64.5021 16.9279C63.9745 17.5275 63.7327 18.3668 63.7327 19.446V25.9101H60.2261V12.7421H63.4469L63.5568 14.7369C63.9085 14.0393 64.3262 13.516 64.9198 13.1236C65.5103 12.7423 66.2054 12.5519 66.9094 12.5786C67.1623 12.5786 67.4041 12.6004 67.6129 12.644C67.7229 12.6767 67.7888 12.6767 67.8548 12.7094V16.1976ZM69.2618 25.8992V7.34624H72.7573V14.4317C73.252 13.7994 73.8126 13.3089 74.5161 12.9274C75.6298 12.3859 76.895 12.2323 78.1076 12.4914C79.3202 12.7504 80.4094 13.4071 81.1994 14.3554C82.3847 15.7099 83.0126 17.4572 82.9582 19.2498C82.9763 21.0776 82.3283 22.8504 81.1334 24.2423C80.5807 24.8848 79.8927 25.3993 79.1179 25.7496C78.343 26.0999 77.5001 26.2774 76.6486 26.2698C75.8473 26.2916 75.0536 26.1109 74.3422 25.7448C73.6307 25.3786 73.0248 24.8391 72.5814 24.1769L72.4715 25.8883L69.2618 25.921V25.8992ZM76.022 23.1522C76.6486 23.1522 77.2092 22.9778 77.7368 22.6617C78.2205 22.3129 78.6162 21.855 78.924 21.2991C79.2098 20.7432 79.3417 20.0782 79.3417 19.337C79.3417 18.6066 79.2098 17.9417 78.924 17.3858C78.6353 16.8497 78.2298 16.3842 77.7368 16.0232C77.2223 15.7053 76.6282 15.5368 76.022 15.5368C75.4158 15.5368 74.8217 15.7053 74.3072 16.0232C73.8126 16.372 73.4279 16.8298 73.1091 17.3858C72.8184 17.9989 72.6754 18.6706 72.6914 19.3479C72.6485 19.9917 72.7749 20.6355 73.0581 21.2163C73.3414 21.7972 73.7718 22.2952 74.3072 22.6617C74.8239 22.9778 75.3845 23.1522 76.022 23.1522ZM84.2772 25.9101V12.7421H87.498L87.6079 14.4535C88.0126 13.7975 88.5868 13.2606 89.2709 12.8984C89.955 12.5362 90.7243 12.3618 91.4992 12.3933C92.3852 12.3781 93.2562 12.6223 94.003 13.0954C94.7499 13.5685 95.3395 14.2494 95.6982 15.053C96.0829 15.8815 96.2918 16.9061 96.2918 18.0507V25.9428H92.7853V18.5085C92.7853 17.5929 92.5764 16.8734 92.1587 16.3393C91.741 15.8161 91.1694 15.5326 90.4439 15.5326C89.9163 15.5326 89.4546 15.6417 89.0479 15.8815C88.6631 16.1322 88.3444 16.4483 88.1025 16.8952C87.858 17.347 87.7368 17.8543 87.7508 18.3668V25.9101H84.2772ZM98.0396 25.9101V7.33534H101.546V14.4208C102.021 13.785 102.639 13.2678 103.351 12.9102C104.062 12.5525 104.848 12.3644 105.646 12.3606C106.475 12.3485 107.295 12.5216 108.047 12.8669C108.798 13.2123 109.462 13.721 109.988 14.3554C111.165 15.7098 111.788 17.4518 111.736 19.2389C111.755 21.0669 111.107 22.84 109.911 24.2314C109.359 24.8739 108.671 25.3883 107.896 25.7387C107.121 26.089 106.278 26.2665 105.426 26.2589C104.625 26.2807 103.831 26.1 103.12 25.7339C102.408 25.3677 101.803 24.8282 101.359 24.166L101.26 25.8774L98.0396 25.9101ZM104.833 23.1522C105.47 23.1522 106.031 22.9778 106.548 22.6617C107.042 22.3129 107.427 21.855 107.746 21.2991C108.021 20.7432 108.163 20.0782 108.163 19.337C108.206 18.6932 108.08 18.0494 107.797 17.4685C107.513 16.8877 107.083 16.3897 106.548 16.0232C106.033 15.7053 105.439 15.5368 104.833 15.5368C104.227 15.5368 103.632 15.7053 103.118 16.0232C102.634 16.372 102.239 16.8298 101.931 17.3858C101.624 17.9934 101.48 18.6691 101.513 19.3479C101.47 19.9917 101.597 20.6355 101.88 21.2163C102.163 21.7972 102.594 22.2952 103.129 22.6617C103.646 22.9778 104.173 23.1522 104.833 23.1522Z" fill="#FF385C"/>
</g>
<defs>
<clipPath id="clip0_46_979">
<rect width="112.121" height="34.8822" fill="white"/>
</clipPath>
</defs>
</svg>
