<svg width="105" height="35" viewBox="0 0 105 35" fill="none" xmlns="http://www.w3.org/2000/svg">
<g clip-path="url(#clip0_46_992)">
<path d="M44.7615 17.8885C44.7615 22.7302 40.918 26.2981 36.2012 26.2981C31.4844 26.2981 27.641 22.7302 27.641 17.8885C27.641 13.0125 31.4844 9.47882 36.2012 9.47882C40.918 9.47882 44.7615 13.0125 44.7615 17.8885ZM41.0142 17.8885C41.0142 14.8628 38.7866 12.7926 36.2012 12.7926C33.6158 12.7926 31.3883 14.8628 31.3883 17.8885C31.3883 20.8838 33.6158 22.9843 36.2012 22.9843C38.7866 22.9843 41.0142 20.88 41.0142 17.8885Z" fill="#EA4335"/>
<path d="M63.2284 17.8885C63.2284 22.7302 59.3849 26.2981 54.6681 26.2981C49.9514 26.2981 46.1079 22.7302 46.1079 17.8885C46.1079 13.0163 49.9514 9.47882 54.6681 9.47882C59.3849 9.47882 63.2284 13.0125 63.2284 17.8885ZM59.4811 17.8885C59.4811 14.8628 57.2535 12.7926 54.6681 12.7926C52.0828 12.7926 49.8552 14.8628 49.8552 17.8885C49.8552 20.8838 52.0828 22.9843 54.6681 22.9843C57.2535 22.9843 59.4811 20.88 59.4811 17.8885Z" fill="#FBBC05"/>
<path d="M80.926 9.98689V25.0848C80.926 31.2953 77.2095 33.8319 72.8159 33.8319C68.68 33.8319 66.1908 31.1058 65.2521 28.8763L68.5146 27.5379C69.0955 28.9067 70.519 30.5219 72.812 30.5219C75.6244 30.5219 77.3672 28.8119 77.3672 25.5929V24.3834H77.2364C76.3977 25.4033 74.7818 26.2943 72.7428 26.2943C68.4761 26.2943 64.5673 22.6317 64.5673 17.9188C64.5673 13.1718 68.4761 9.47882 72.7428 9.47882C74.778 9.47882 76.3939 10.3698 77.2364 11.3594H77.3672V9.99068H80.926V9.98689ZM77.6327 17.9188C77.6327 14.9576 75.6283 12.7926 73.0775 12.7926C70.4921 12.7926 68.3261 14.9576 68.3261 17.9188C68.3261 20.8496 70.4921 22.9843 73.0775 22.9843C75.6283 22.9843 77.6327 20.8496 77.6327 17.9188Z" fill="#4285F4"/>
<path d="M86.7932 1.13745V25.7825H83.1383V1.13745H86.7932Z" fill="#34A853"/>
<path d="M101.036 20.6563L103.945 22.5673C103.006 23.936 100.744 26.2944 96.8347 26.2944C91.9871 26.2944 88.3668 22.6014 88.3668 17.8847C88.3668 12.8837 92.0179 9.4751 96.4154 9.4751C100.844 9.4751 103.01 12.9481 103.718 14.825L104.106 15.7804L92.6989 20.4364C93.5722 22.1237 94.9303 22.9844 96.8347 22.9844C98.743 22.9844 100.066 22.0592 101.036 20.6563ZM92.0833 17.6307L99.7087 14.5103C99.2893 13.46 98.0274 12.7282 96.5423 12.7282C94.6379 12.7282 91.9871 14.3851 92.0833 17.6307Z" fill="#EA4335"/>
<path d="M13.8063 15.7008V12.1329H26.0061C26.1253 12.7548 26.1869 13.4903 26.1869 14.2865C26.1869 16.9634 25.4444 20.2734 23.0513 22.6317C20.7237 25.0204 17.7498 26.2943 13.8101 26.2943C6.50796 26.2943 0.367676 20.4326 0.367676 13.2363C0.367676 6.03994 6.50796 0.178223 13.8101 0.178223C17.8498 0.178223 20.7276 1.74034 22.8897 3.77639L20.3351 6.29397C18.7847 4.86077 16.6841 3.74606 13.8063 3.74606C8.47393 3.74606 4.30346 7.98121 4.30346 13.2363C4.30346 18.4914 8.47393 22.7265 13.8063 22.7265C17.265 22.7265 19.2348 21.3578 20.4967 20.1141C21.5201 19.1056 22.1934 17.6648 22.4589 15.697L13.8063 15.7008Z" fill="#4285F4"/>
</g>
<defs>
<clipPath id="clip0_46_992">
<rect width="104.646" height="34.8822" fill="white" transform="translate(0.229004)"/>
</clipPath>
</defs>
</svg>

