<svg width="100" height="31" viewBox="0 0 100 31" fill="none" xmlns="http://www.w3.org/2000/svg">
<g clip-path="url(#clip0_46_1008)">
<path d="M74.4502 29.4957L82.7617 20.2902L74.4502 11.0835H83.2197L87.3362 15.5555L91.3002 11.0835H99.7638L91.4918 20.2522L99.8773 29.4957H91.0719L86.9926 24.9869L82.9519 29.4957H74.4502Z" fill="#FF6600"/>
<path d="M74.4501 6.95617H65.0367V11.0835H74.4501V17.3038H65.0367V23.0132H74.4501V29.4957H58.1179V0.491577H74.4501V6.95617Z" fill="#FF6600"/>
<path d="M51.2282 0.491577V12.3615H51.1524C49.6271 10.6333 47.7214 10.0328 45.5101 10.0328C40.9807 10.0328 37.5687 13.0679 36.371 17.0808C35.0052 12.6592 31.4828 9.94991 26.2595 9.94991C22.0178 9.94991 18.6682 11.8267 16.9202 14.885V11.0839H8.15244V6.95702H17.7206V0.491577H0.33667V29.4962H8.15244V17.3038H15.9426C15.7104 18.1995 15.5865 19.1584 15.5865 20.1702C15.5865 26.2205 20.2754 30.4657 26.2595 30.4657C31.2917 30.4657 34.6078 28.137 36.3619 23.8914H29.6641C28.758 25.1668 28.0708 25.5456 26.2595 25.5456C24.1592 25.5456 22.3484 23.7393 22.3484 21.5981H35.9867C36.5781 26.4037 40.3758 30.5482 45.5873 30.5482C47.8353 30.5482 49.8936 29.4581 51.1524 27.6176H51.2282V29.4953H58.118V0.491577H51.2282ZM22.5659 17.3905C23.0005 15.5483 24.45 14.3442 26.2595 14.3442C28.2515 14.3442 29.6273 15.5111 29.9891 17.3905C30.1416 17.3905 22.5659 17.3905 22.5659 17.3905ZM47.0471 25.0797C44.5074 25.0797 42.9293 22.7471 42.9293 20.3116C42.9293 17.7083 44.3021 15.2049 47.0471 15.2049C49.8936 15.2049 51.0276 17.7083 51.0276 20.3116C51.0272 22.7804 49.8256 25.0797 47.0471 25.0797Z" fill="#652C8F"/>
</g>
<defs>
<clipPath id="clip0_46_1008">
<rect width="99.6633" height="29.899" fill="white" transform="translate(0.33667 0.491577)"/>
</clipPath>
</defs>
</svg>
