<svg width="106" height="31" viewBox="0 0 106 31" fill="none" xmlns="http://www.w3.org/2000/svg">
<g clip-path="url(#clip0_46_981)">
<path d="M12.1845 5.4408V13.8745H4.50006V5.4408H0.851807V25.5728H4.50006V17.413H12.1845V25.5728H15.8327V5.4408H12.1845Z" fill="#33475B"/>
<path d="M27.5085 19.0651C27.5085 19.872 27.1905 20.6457 26.6245 21.2163C26.0585 21.7868 25.2908 22.1073 24.4903 22.1073C23.6899 22.1073 22.9222 21.7868 22.3562 21.2163C21.7901 20.6457 21.4722 19.872 21.4722 19.0651V10.4423H18.0116V19.0651C18.0116 20.7954 18.6935 22.4548 19.9073 23.6782C21.1212 24.9017 22.7675 25.589 24.4841 25.589C26.2007 25.589 27.847 24.9017 29.0608 23.6782C30.2746 22.4548 30.9566 20.7954 30.9566 19.0651V10.4423H27.5085V19.0651Z" fill="#33475B"/>
<path d="M53.1484 11.3305C53.1484 9.56306 54.3084 9.00273 55.5793 9.00273C56.6036 9.00273 57.9567 9.78827 58.8415 10.7414L61.108 8.04964C59.9766 6.50739 57.6814 5.4408 55.8028 5.4408C52.0491 5.4408 49.3339 7.65687 49.3339 11.3305C49.3339 18.1463 57.5992 15.9843 57.5992 19.7984C57.5992 20.9749 56.4659 22.0145 55.1682 22.0145C53.1215 22.0145 52.4584 21.0056 51.5182 19.939L49.0032 22.5748C50.6119 24.5657 52.596 25.5764 54.9734 25.5764C58.5394 25.5764 61.4083 23.3333 61.4083 19.8273C61.4083 12.2602 53.143 14.6114 53.143 11.3305" fill="#33475B"/>
<path d="M104.281 22.3568C102.236 22.3568 101.655 21.465 101.655 20.0993V14.0547H104.833V10.9918H101.655V6.95062L98.1462 8.53791V20.8506C98.1462 24 100.302 25.5873 103.258 25.5873C103.722 25.5958 104.186 25.5584 104.642 25.4756L105.498 22.2992C105.112 22.3262 104.669 22.3532 104.281 22.3532" fill="#33475B"/>
<path d="M40.6805 10.5432C38.9663 10.5432 37.7705 11.0441 36.614 12.1881V5.56152H33.1481V17.8436C33.1481 22.4415 36.446 25.5909 40.1514 25.5909C44.2627 25.5909 47.8787 22.3857 47.8787 18.0688C47.8787 13.806 44.5504 10.545 40.6805 10.545V10.5432ZM40.6591 22.0758C39.8813 22.0758 39.121 21.8433 38.4743 21.4078C37.8276 20.9722 37.3236 20.3532 37.026 19.6289C36.7283 18.9046 36.6504 18.1077 36.8022 17.3388C36.9539 16.5699 37.3284 15.8636 37.8784 15.3093C38.4284 14.755 39.1291 14.3775 39.8919 14.2245C40.6547 14.0716 41.4454 14.1501 42.164 14.4501C42.8825 14.7501 43.4967 15.2581 43.9288 15.91C44.3609 16.5618 44.5915 17.3281 44.5915 18.1121C44.5915 19.1633 44.1772 20.1715 43.4398 20.9148C42.7023 21.6582 41.702 22.0758 40.6591 22.0758Z" fill="#33475B"/>
<path d="M78.3141 17.885C78.3141 13.561 74.7052 10.363 70.5869 10.363C66.8814 10.363 63.5835 13.5123 63.5835 18.1102V30.3995H67.0494V23.7639C68.2041 24.9062 69.4017 25.4089 71.1142 25.4089C74.9841 25.4089 78.3123 22.1496 78.3123 17.885H78.3141ZM75.0323 17.8418C75.0323 18.6257 74.8017 19.3921 74.3696 20.0439C73.9375 20.6957 73.3233 21.2038 72.6047 21.5038C71.8862 21.8038 71.0955 21.8823 70.3327 21.7293C69.5698 21.5764 68.8692 21.1989 68.3192 20.6445C67.7692 20.0902 67.3947 19.3839 67.243 18.6151C67.0912 17.8462 67.1691 17.0492 67.4667 16.3249C67.7644 15.6007 68.2684 14.9816 68.9151 14.5461C69.5618 14.1105 70.3221 13.8781 71.0999 13.8781C72.1428 13.8781 73.143 14.2957 73.8805 15.039C74.618 15.7823 75.0323 16.7905 75.0323 17.8418Z" fill="#33475B"/>
<path d="M89.5111 10.1936V6.68394C89.9712 6.46722 90.3609 6.12322 90.6346 5.69198C90.9083 5.26074 91.0549 4.76001 91.0573 4.24806V4.16699C91.0573 3.45023 90.7748 2.76283 90.2719 2.25601C89.7691 1.74919 89.0871 1.46446 88.376 1.46446H88.2956C87.5845 1.46446 86.9025 1.74919 86.3997 2.25601C85.8969 2.76283 85.6144 3.45023 85.6144 4.16699V4.24806C85.6167 4.76001 85.7633 5.26074 86.037 5.69198C86.3108 6.12322 86.7004 6.46722 87.1605 6.68394V10.1936C85.838 10.3976 84.5924 10.9501 83.5498 11.7953L74.0011 4.29851C74.0687 4.05129 74.1047 3.7964 74.1083 3.54C74.1094 2.93771 73.9332 2.34863 73.6021 1.84728C73.271 1.34592 72.7997 0.954814 72.2481 0.723423C71.6964 0.492031 71.089 0.430751 70.5028 0.547334C69.9165 0.663918 69.3778 0.953127 68.9546 1.37838C68.5314 1.80363 68.2429 2.34583 68.1255 2.93638C68.0081 3.52693 68.0671 4.13931 68.2951 4.69606C68.523 5.25281 68.9096 5.72892 69.406 6.06417C69.9025 6.39941 70.4864 6.57873 71.0839 6.57945C71.6064 6.57709 72.1192 6.4367 72.5711 6.17227L81.9751 13.5466C81.1301 14.8329 80.6892 16.3461 80.7099 17.8887C80.7307 19.4313 81.212 20.9318 82.0912 22.1947L79.2313 25.0774C79 25.0029 78.759 24.9635 78.5163 24.9603C78.0257 24.9606 77.5463 25.1075 77.1386 25.3825C76.7308 25.6574 76.4131 26.048 76.2256 26.5048C76.038 26.9617 75.989 27.4644 76.0848 27.9493C76.1806 28.4342 76.4168 28.8797 76.7637 29.2293C77.1106 29.5789 77.5525 29.817 78.0336 29.9136C78.5147 30.0101 79.0134 29.9608 79.4667 29.7717C79.92 29.5827 80.3075 29.2624 80.5802 28.8515C80.853 28.4405 80.9987 27.9572 80.9991 27.4628C80.996 27.2181 80.9569 26.9752 80.8829 26.7421L83.7125 23.89C84.6352 24.6057 85.7081 25.099 86.8491 25.3322C87.9901 25.5654 89.1689 25.5323 90.2953 25.2354C91.4216 24.9385 92.4656 24.3857 93.3473 23.6193C94.229 22.853 94.925 21.8934 95.3819 20.8141C95.8389 19.7347 96.0447 18.5643 95.9836 17.3924C95.9225 16.2206 95.5961 15.0784 95.0294 14.0532C94.4628 13.0281 93.6709 12.1474 92.7144 11.4784C91.7578 10.8094 90.6621 10.3699 89.5111 10.1936ZM88.3385 21.7352C87.5645 21.7345 86.8081 21.5026 86.1648 21.0686C85.5216 20.6347 85.0204 20.0184 84.7246 19.2974C84.4288 18.5765 84.3517 17.7833 84.503 17.0182C84.6543 16.2531 85.0272 15.5504 85.5747 14.9989C86.1221 14.4474 86.8195 14.0718 87.5786 13.9196C88.3377 13.7675 89.1246 13.8456 89.8397 14.144C90.5548 14.4425 91.1661 14.9479 91.5963 15.5965C92.0265 16.245 92.2563 17.0076 92.2567 17.7877C92.2567 18.8342 91.8442 19.8378 91.1101 20.5778C90.376 21.3177 89.3803 21.7334 88.3421 21.7334" fill="#FF7A59"/>
</g>
<defs>
<clipPath id="clip0_46_981">
<rect width="104.646" height="29.899" fill="white" transform="translate(0.851807 0.491577)"/>
</clipPath>
</defs>
</svg>
