<svg width="153" height="33" viewBox="0 0 153 33" fill="none" xmlns="http://www.w3.org/2000/svg">
<g clip-path="url(#clip0_46_999)">
<path d="M54.2543 18.9017L53.3484 21.4628H53.2729C53.1219 20.8853 52.8451 20.0065 52.3922 18.9519L47.5357 6.77409H42.7798V26.1833H45.9252V14.2063C45.9252 13.4531 45.9252 12.5994 45.9 11.5448C45.8749 11.0175 45.8245 10.6158 45.7994 10.3145H45.8749C46.0259 11.0677 46.202 11.6201 46.3278 11.9716L52.1657 26.1331H54.3801L60.1676 11.8461C60.2935 11.5197 60.4193 10.8669 60.5451 10.3145H60.6206C60.5451 11.7457 60.4948 13.0262 60.4696 13.8046V26.108H63.8163V6.72387H59.2366L54.2543 18.9017ZM66.9869 12.1976H70.2581V26.108H66.9869V12.1976ZM68.6477 6.32213C68.0941 6.32213 67.6412 6.523 67.2637 6.87453C66.8863 7.22605 66.6849 7.67802 66.6849 8.23041C66.6849 8.7577 66.8863 9.20966 67.2637 9.56119C67.6412 9.91271 68.0941 10.0885 68.6477 10.0885C69.2013 10.0885 69.6794 9.8876 70.0317 9.56119C70.4091 9.20966 70.6104 8.7577 70.6104 8.23041C70.6104 7.70312 70.4091 7.25116 70.0317 6.87453C69.7045 6.523 69.2264 6.32213 68.6477 6.32213ZM81.8584 12.0721C81.2545 11.9465 80.6254 11.8712 80.0215 11.8712C78.5369 11.8712 77.1781 12.1976 76.0457 12.8505C74.9134 13.5033 74.0075 14.4072 73.4287 15.5371C72.8248 16.6921 72.5228 18.0229 72.5228 19.5546C72.5228 20.8853 72.8248 22.0655 73.4036 23.1451C73.9823 24.1997 74.7875 25.0534 75.8696 25.6309C76.9013 26.2084 78.1091 26.5097 79.4679 26.5097C81.028 26.5097 82.3617 26.1833 83.4186 25.5807L83.4437 25.5556V22.5425L83.3179 22.643C82.8398 22.9945 82.2862 23.2958 81.7326 23.4716C81.1539 23.6724 80.6254 23.7729 80.1725 23.7729C78.864 23.7729 77.8323 23.3962 77.1026 22.5676C76.3477 21.7641 75.9702 20.6594 75.9702 19.2784C75.9702 17.8471 76.3477 16.7172 77.1277 15.8886C77.9078 15.0601 78.9395 14.6332 80.1977 14.6332C81.2545 14.6332 82.3365 14.9847 83.3179 15.6878L83.4437 15.7882V12.5994L83.4186 12.5743C82.9908 12.3985 82.5127 12.1976 81.8584 12.0721ZM92.6535 11.9716C91.8483 11.9716 91.0934 12.2227 90.4391 12.75C89.8855 13.202 89.5081 13.8548 89.181 14.6332H89.1558V12.1976H85.8846V26.108H89.1558V19.0022C89.1558 17.7969 89.4074 16.7926 89.961 16.0644C90.5146 15.3111 91.2192 14.9345 92.0747 14.9345C92.3767 14.9345 92.6787 15.0098 93.0561 15.0601C93.4084 15.1605 93.66 15.2609 93.8362 15.3865L93.962 15.4869V12.2227L93.8865 12.1976C93.66 12.047 93.2071 11.9716 92.6535 11.9716ZM101.561 11.8963C99.2715 11.8963 97.4345 12.5743 96.1512 13.905C94.8427 15.2358 94.2136 17.0688 94.2136 19.3788C94.2136 21.5382 94.8679 23.2958 96.126 24.5764C97.3842 25.8318 99.0953 26.4846 101.234 26.4846C103.474 26.4846 105.26 25.8067 106.544 24.4508C107.852 23.0949 108.481 21.2871 108.481 19.0524C108.481 16.8428 107.877 15.0852 106.644 13.8046C105.462 12.524 103.725 11.8963 101.561 11.8963ZM104.178 22.5927C103.574 23.3711 102.618 23.7478 101.436 23.7478C100.253 23.7478 99.2966 23.3711 98.6172 22.5425C97.9378 21.7641 97.6107 20.6342 97.6107 19.203C97.6107 17.7216 97.963 16.5917 98.6172 15.7882C99.2966 14.9847 100.228 14.583 101.41 14.583C102.568 14.583 103.474 14.9596 104.128 15.738C104.782 16.5164 105.135 17.6463 105.135 19.1277C105.084 20.6342 104.807 21.8144 104.178 22.5927ZM115.779 17.9727C114.747 17.5458 114.093 17.2194 113.791 16.9432C113.539 16.6921 113.413 16.3406 113.413 15.8886C113.413 15.512 113.564 15.1354 113.942 14.8843C114.319 14.6332 114.747 14.5077 115.376 14.5077C115.93 14.5077 116.508 14.6081 117.062 14.7587C117.616 14.9094 118.119 15.1354 118.521 15.4367L118.647 15.5371V12.4738L118.572 12.4487C118.194 12.2981 117.691 12.1474 117.087 12.0219C116.483 11.9214 115.93 11.8712 115.477 11.8712C113.917 11.8712 112.633 12.2478 111.627 13.0764C110.62 13.8548 110.142 14.9094 110.142 16.1397C110.142 16.7926 110.243 17.3701 110.469 17.8471C110.696 18.3242 111.023 18.7762 111.476 19.1528C111.929 19.5043 112.583 19.9061 113.489 20.2827C114.244 20.6091 114.822 20.8602 115.175 21.0611C115.527 21.262 115.753 21.4879 115.93 21.6637C116.055 21.8646 116.131 22.1157 116.131 22.4421C116.131 23.3711 115.426 23.8231 113.992 23.8231C113.438 23.8231 112.86 23.7226 112.18 23.4967C111.501 23.2707 110.872 22.9443 110.343 22.5676L110.218 22.4672V25.656L110.293 25.6811C110.771 25.9071 111.35 26.0578 112.054 26.2335C112.759 26.3591 113.388 26.4595 113.942 26.4595C115.628 26.4595 117.012 26.0829 117.993 25.2543C119 24.4508 119.528 23.4213 119.528 22.0906C119.528 21.1615 119.276 20.3329 118.723 19.7052C117.993 19.1026 117.087 18.4749 115.779 17.9727ZM128.159 11.8963C125.869 11.8963 124.032 12.5743 122.749 13.905C121.466 15.2358 120.811 17.0688 120.811 19.3788C120.811 21.5382 121.466 23.2958 122.724 24.5764C123.982 25.8318 125.693 26.4846 127.832 26.4846C130.071 26.4846 131.858 25.8067 133.141 24.4508C134.45 23.0949 135.079 21.2871 135.079 19.0524C135.079 16.8428 134.475 15.0852 133.242 13.8046C132.059 12.524 130.323 11.8963 128.159 11.8963ZM130.751 22.5927C130.147 23.3711 129.191 23.7478 128.008 23.7478C126.8 23.7478 125.869 23.3711 125.19 22.5425C124.51 21.7641 124.183 20.6342 124.183 19.203C124.183 17.7216 124.535 16.5917 125.19 15.7882C125.869 14.9847 126.8 14.583 127.983 14.583C129.115 14.583 130.046 14.9596 130.7 15.738C131.355 16.5164 131.707 17.6463 131.707 19.1277C131.707 20.6342 131.38 21.8144 130.751 22.5927ZM152.567 14.8843V12.1976H149.271V8.07976L149.17 8.10487L146.05 9.0339L145.975 9.05901V12.1976H141.043V10.44C141.043 9.63651 141.244 9.00879 141.596 8.60705C141.948 8.2053 142.477 8.00443 143.131 8.00443C143.584 8.00443 144.062 8.10487 144.591 8.33085L144.716 8.40618V5.56886L144.641 5.54375C144.188 5.3931 143.584 5.29266 142.804 5.29266C141.823 5.29266 140.967 5.51864 140.187 5.89528C139.407 6.32213 138.828 6.89964 138.4 7.67802C137.973 8.43128 137.746 9.28499 137.746 10.2642V12.1976H135.456V14.8592H137.746V26.108H141.043V14.8843H145.975V22.0403C145.975 24.9781 147.359 26.4595 150.127 26.4595C150.579 26.4595 151.058 26.3842 151.511 26.3089C151.989 26.2084 152.341 26.0829 152.542 25.9825L152.567 25.9573V23.2707L152.442 23.3711C152.24 23.4967 152.064 23.5971 151.762 23.6724C151.511 23.7478 151.284 23.7729 151.108 23.7729C150.454 23.7729 150.001 23.6222 149.674 23.2456C149.372 22.8941 149.221 22.3165 149.221 21.4628V14.8843H152.567Z" fill="#737373"/>
<path d="M0.606079 0.245789H16.0312V15.6376H0.606079V0.245789Z" fill="#F25022"/>
<path d="M17.6415 0.245789H33.0666V15.6376H17.6415V0.245789Z" fill="#7FBA00"/>
<path d="M0.606079 17.2446H16.0312V32.6364H0.606079V17.2446Z" fill="#00A4EF"/>
<path d="M17.6415 17.2446H33.0666V32.6364H17.6415V17.2446Z" fill="#FFB900"/>
</g>
<defs>
<clipPath id="clip0_46_999">
<rect width="151.987" height="32.3906" fill="white" transform="translate(0.606079 0.245789)"/>
</clipPath>
</defs>
</svg>
