<svg width="72" height="72" viewBox="0 0 72 72" fill="none" xmlns="http://www.w3.org/2000/svg">
<path d="M29.8948 42.695L38.0629 18.1901C38.3655 17.2823 37.8749 16.3009 36.967 15.9983C36.0593 15.6958 35.0779 16.1863 34.7752 17.0942L26.6071 41.5991C26.3045 42.5069 26.7951 43.4882 27.703 43.7909C27.8847 43.8514 28.0695 43.8802 28.2511 43.8802C28.9765 43.8803 29.6526 43.4211 29.8948 42.695Z" fill="#00ECD0"/>
<path d="M42.1367 35.0929C45.003 35.0929 47.335 32.761 47.335 29.8947C47.335 27.0283 45.003 24.6964 42.1367 24.6964C39.2704 24.6964 36.9385 27.0283 36.9385 29.8947C36.9385 32.761 39.2704 35.0929 42.1367 35.0929ZM42.1367 28.1619C43.0922 28.1619 43.8695 28.9392 43.8695 29.8947C43.8695 30.8501 43.0922 31.6274 42.1367 31.6274C41.1813 31.6274 40.404 30.8501 40.404 29.8947C40.404 28.9392 41.1813 28.1619 42.1367 28.1619Z" fill="#00ECD0"/>
<path d="M22.5332 24.6964C19.6669 24.6964 17.335 27.0283 17.335 29.8947C17.335 32.761 19.6669 35.0929 22.5332 35.0929C25.3995 35.0929 27.7314 32.761 27.7314 29.8947C27.7314 27.0283 25.3996 24.6964 22.5332 24.6964ZM22.5332 31.6274C21.5778 31.6274 20.8005 30.8501 20.8005 29.8947C20.8005 28.9392 21.5778 28.1619 22.5332 28.1619C23.4886 28.1619 24.2659 28.9392 24.2659 29.8947C24.2659 30.8501 23.4888 31.6274 22.5332 31.6274Z" fill="#00ECD0"/>
<path d="M71.5781 26.1562L64.2224 16.3486L64.5094 14.3401C64.6032 13.6828 64.3823 13.0196 63.9128 12.5502L59.4381 8.0755L63.9126 3.60081C64.7364 2.77717 64.7364 1.44151 63.9126 0.61773C63.089 -0.20591 61.7533 -0.20591 60.9296 0.61773L56.455 5.09242L51.9803 0.61773C51.5109 0.148184 50.8477 -0.0720352 50.1904 0.0210586L29.3086 3.00414C28.8568 3.06868 28.4381 3.27807 28.1154 3.60081L2.26178 29.4544C-0.753926 32.47 -0.753926 37.377 2.26178 40.3925L24.1378 62.2687C24.5853 62.7162 25.0752 63.0957 25.5937 63.4103V64.2656C25.5937 68.5303 29.0634 72 33.3281 72H64.2656C68.5303 72 72 68.5303 72 64.2656V27.4218C72 26.9655 71.8519 26.5213 71.5781 26.1562ZM5.24486 37.4095C3.87404 36.0386 3.87404 33.8083 5.24486 32.4375L30.6012 7.08114L49.7428 4.34668L53.4718 8.07564L50.4887 11.0587L48.9971 9.56711C48.1735 8.74347 46.8378 8.74347 46.014 9.56711C45.1902 10.3907 45.1902 11.7264 46.014 12.5502L51.9803 18.5165C52.3922 18.9284 52.9321 19.1344 53.4718 19.1344C54.0115 19.1344 54.5515 18.9284 54.9633 18.5165C55.787 17.6928 55.787 16.3572 54.9633 15.5334L53.4716 14.0418L56.4547 11.0587L60.1837 14.7877L57.4491 33.9293L32.0928 59.2856C31.4288 59.9497 30.546 60.3153 29.6069 60.3153C28.6678 60.3153 27.7849 59.9495 27.1209 59.2856L5.24486 37.4095ZM67.7812 64.2656C67.7812 66.2041 66.2041 67.7812 64.2656 67.7812H33.3281C31.4769 67.7812 29.9565 66.3429 29.823 64.5252C31.7309 64.4723 33.623 63.7217 35.0758 62.2687L60.9294 36.4151C61.2521 36.0924 61.4615 35.6737 61.5261 35.2219L63.3785 22.2549L67.7812 28.125V64.2656Z" fill="#005FEC"/>
</svg>
