<svg width="56" height="72" viewBox="0 0 56 72" fill="none" xmlns="http://www.w3.org/2000/svg">
<mask id="path-1-inside-1_46_1017" fill="white">
<path d="M55.4615 32.9776C55.7565 31.3071 55.495 29.5938 54.743 28.0986C55.495 26.6033 55.7559 24.89 55.4615 23.219C55.1671 21.5485 54.336 20.028 53.1176 18.88C53.3131 17.2177 52.9726 15.5187 52.1239 14.0493C51.2757 12.5799 49.9744 11.4351 48.4374 10.7732C48.0523 9.14445 47.1515 7.6646 45.8518 6.57366C44.5516 5.48327 42.9377 4.85265 41.2667 4.75652C40.3476 3.35742 38.9947 2.27471 37.4 1.69464C35.8059 1.11456 34.0734 1.07391 32.4705 1.55511C31.1285 0.554808 29.4866 0 27.7897 0C26.0935 0 24.4516 0.554808 23.1096 1.55511C21.5067 1.07391 19.7741 1.11456 18.1795 1.69464C16.5854 2.27526 15.2324 3.35796 14.3134 4.75652C12.6424 4.8532 11.0279 5.48327 9.72826 6.57366C8.42858 7.6646 7.5277 9.14445 7.14263 10.7737C5.6051 11.4356 4.30432 12.5799 3.45563 14.0493C2.60748 15.5187 2.26691 17.2177 2.46247 18.88C1.24408 20.028 0.41297 21.5485 0.118537 23.219C-0.176446 24.89 0.0850286 26.6033 0.837041 28.0986C0.0850286 29.5938 -0.176446 31.3071 0.118537 32.9776C0.41297 34.6486 1.24408 36.1691 2.46247 37.3172C2.26691 38.9794 2.60748 40.6784 3.45563 42.1479C4.30432 43.6173 5.60565 44.7615 7.14263 45.4234C7.40411 46.5303 7.90453 47.5685 8.60601 48.4622L2.42621 61.3953C2.0774 62.1248 2.17682 62.9894 2.68109 63.6217C3.18591 64.2534 4.00714 64.5413 4.79596 64.3622L14.1047 62.2512L18.3102 70.8199C18.6645 71.5423 19.3995 71.9999 20.2037 71.9999H20.2147C21.0233 71.996 21.7583 71.5296 22.1071 70.8001L27.7897 58.9075L33.473 70.8001C33.8212 71.5296 34.5562 71.9955 35.3648 71.9999H35.3763C36.18 71.9999 36.915 71.5423 37.2698 70.8199L41.4754 62.2512L50.7835 64.3622C51.5724 64.5413 52.3936 64.2534 52.8984 63.6217C53.4032 62.9894 53.5021 62.1248 53.1533 61.3953L46.9735 48.4622C47.675 47.5685 48.1754 46.5303 48.4369 45.4234C49.9744 44.7615 51.2757 43.6173 52.1239 42.1479C52.972 40.6784 53.3126 38.9794 53.1176 37.3172C54.3354 36.1691 55.1671 34.6486 55.4615 32.9776ZM50.5957 29.3966C51.2252 30.2025 51.4839 31.2407 51.307 32.2454C51.1296 33.2501 50.5309 34.1367 49.6646 34.6788C48.8439 35.1919 48.4775 36.1977 48.7763 37.1183C49.0922 38.0906 48.9807 39.1546 48.4704 40.0385C47.9606 40.9218 47.0943 41.5508 46.0946 41.7633C45.1481 41.9649 44.4598 42.7851 44.4258 43.7524C44.3895 44.7736 43.9209 45.7354 43.1393 46.3913C42.3576 47.0472 41.3293 47.3422 40.3169 47.1999C39.3583 47.0648 38.4311 47.6009 38.0685 48.4979C37.6857 49.4455 36.9161 50.1893 35.957 50.5381C34.9984 50.8869 33.9311 50.8122 33.0286 50.3327C32.1733 49.8784 31.1191 50.064 30.4715 50.7836C29.7876 51.5428 28.8098 51.9784 27.7897 51.9784C26.7697 51.9784 25.7919 51.5428 25.108 50.7836C24.6971 50.3272 24.1231 50.086 23.5402 50.086C23.2035 50.086 22.864 50.1662 22.5509 50.3327C21.649 50.8122 20.5811 50.8869 19.6225 50.5381C18.664 50.1893 17.8944 49.4455 17.511 48.4979C17.1484 47.6009 16.2217 47.0659 15.2626 47.1999C14.2502 47.3416 13.2219 47.0472 12.4402 46.3913C11.6586 45.7354 11.19 44.7736 11.1537 43.7524C11.1197 42.7851 10.4319 41.9649 9.48491 41.7633C8.48571 41.5508 7.61944 40.9218 7.10912 40.0385C6.59936 39.1546 6.48785 38.0906 6.80316 37.1183C7.10198 36.1977 6.73559 35.1919 5.91491 34.6788C5.04864 34.1367 4.44989 33.2501 4.27301 32.2454C4.09558 31.2407 4.35486 30.2025 4.98382 29.3966C5.57928 28.6336 5.57928 27.5635 4.98382 26.8005C4.35486 25.9947 4.09558 24.9565 4.27301 23.9518C4.44989 22.9471 5.04864 22.06 5.91491 21.5183C6.73559 21.0053 7.10198 19.9995 6.80316 19.0788C6.48785 18.1065 6.59936 17.0425 7.10912 16.1587C7.61944 15.2754 8.48516 14.6464 9.48491 14.4338C10.4314 14.2322 11.1197 13.4121 11.1537 12.4447C11.19 11.4236 11.6586 10.4617 12.4402 9.80583C13.2214 9.14995 14.2502 8.85551 15.2626 8.99724C16.2212 9.13237 17.1479 8.59624 17.511 7.69865C17.8944 6.75163 18.664 6.00786 19.6225 5.65905C20.5811 5.30968 21.6484 5.38494 22.5509 5.86449C23.4057 6.31822 24.4603 6.13256 25.108 5.4135C25.7924 4.65435 26.7697 4.21874 27.7897 4.21874C28.8104 4.21874 29.7876 4.65435 30.4715 5.4135C31.1197 6.13256 32.1738 6.31877 33.0286 5.86449C33.9311 5.38494 34.999 5.31023 35.9575 5.65905C36.9161 6.00786 37.6857 6.75163 38.0685 7.6992C38.4316 8.59624 39.3589 9.13182 40.3174 8.99724C41.3293 8.85551 42.3581 9.14995 43.1398 9.80583C43.9209 10.4617 44.3901 11.4236 44.4258 12.4447C44.4604 13.4126 45.1481 14.2322 46.0951 14.4338C47.0943 14.6464 47.9606 15.2754 48.4704 16.1587C48.9807 17.0425 49.0922 18.1065 48.7769 19.0788C48.4781 19.9995 48.8439 21.0053 49.6646 21.5183C50.5314 22.0605 51.1302 22.9476 51.307 23.9518C51.4845 24.9565 51.2252 25.9947 50.5962 26.8005C50.0002 27.5635 50.0002 28.6336 50.5957 29.3966ZM40.7827 57.7682C39.8296 57.5523 38.853 58.0187 38.4223 58.8959L35.4016 65.0516L30.8681 55.5643C31.435 55.3215 31.9733 55.0128 32.4705 54.642C34.0734 55.1232 35.8059 55.0826 37.4006 54.5025C38.9947 53.9224 40.3476 52.8392 41.2667 51.4406C42.0318 51.3967 42.7839 51.239 43.5002 50.9787L47.4695 59.2849L40.7827 57.7682ZM17.1578 58.8959C16.7974 58.1626 16.0553 57.716 15.2648 57.716C15.1099 57.716 14.9533 57.733 14.7973 57.7682L8.11053 59.2843L12.0799 50.9781C12.7962 51.239 13.5487 51.3961 14.3134 51.4406C15.2324 52.8392 16.5854 53.9219 18.1795 54.502C19.7741 55.0826 21.5067 55.1227 23.1096 54.642C23.6067 55.0123 24.145 55.3215 24.7119 55.5638L20.1784 65.051L17.1578 58.8959Z"/>
</mask>
<path d="M55.4615 32.9776C55.7565 31.3071 55.495 29.5938 54.743 28.0986C55.495 26.6033 55.7559 24.89 55.4615 23.219C55.1671 21.5485 54.336 20.028 53.1176 18.88C53.3131 17.2177 52.9726 15.5187 52.1239 14.0493C51.2757 12.5799 49.9744 11.4351 48.4374 10.7732C48.0523 9.14445 47.1515 7.6646 45.8518 6.57366C44.5516 5.48327 42.9377 4.85265 41.2667 4.75652C40.3476 3.35742 38.9947 2.27471 37.4 1.69464C35.8059 1.11456 34.0734 1.07391 32.4705 1.55511C31.1285 0.554808 29.4866 0 27.7897 0C26.0935 0 24.4516 0.554808 23.1096 1.55511C21.5067 1.07391 19.7741 1.11456 18.1795 1.69464C16.5854 2.27526 15.2324 3.35796 14.3134 4.75652C12.6424 4.8532 11.0279 5.48327 9.72826 6.57366C8.42858 7.6646 7.5277 9.14445 7.14263 10.7737C5.6051 11.4356 4.30432 12.5799 3.45563 14.0493C2.60748 15.5187 2.26691 17.2177 2.46247 18.88C1.24408 20.028 0.41297 21.5485 0.118537 23.219C-0.176446 24.89 0.0850286 26.6033 0.837041 28.0986C0.0850286 29.5938 -0.176446 31.3071 0.118537 32.9776C0.41297 34.6486 1.24408 36.1691 2.46247 37.3172C2.26691 38.9794 2.60748 40.6784 3.45563 42.1479C4.30432 43.6173 5.60565 44.7615 7.14263 45.4234C7.40411 46.5303 7.90453 47.5685 8.60601 48.4622L2.42621 61.3953C2.0774 62.1248 2.17682 62.9894 2.68109 63.6217C3.18591 64.2534 4.00714 64.5413 4.79596 64.3622L14.1047 62.2512L18.3102 70.8199C18.6645 71.5423 19.3995 71.9999 20.2037 71.9999H20.2147C21.0233 71.996 21.7583 71.5296 22.1071 70.8001L27.7897 58.9075L33.473 70.8001C33.8212 71.5296 34.5562 71.9955 35.3648 71.9999H35.3763C36.18 71.9999 36.915 71.5423 37.2698 70.8199L41.4754 62.2512L50.7835 64.3622C51.5724 64.5413 52.3936 64.2534 52.8984 63.6217C53.4032 62.9894 53.5021 62.1248 53.1533 61.3953L46.9735 48.4622C47.675 47.5685 48.1754 46.5303 48.4369 45.4234C49.9744 44.7615 51.2757 43.6173 52.1239 42.1479C52.972 40.6784 53.3126 38.9794 53.1176 37.3172C54.3354 36.1691 55.1671 34.6486 55.4615 32.9776ZM50.5957 29.3966C51.2252 30.2025 51.4839 31.2407 51.307 32.2454C51.1296 33.2501 50.5309 34.1367 49.6646 34.6788C48.8439 35.1919 48.4775 36.1977 48.7763 37.1183C49.0922 38.0906 48.9807 39.1546 48.4704 40.0385C47.9606 40.9218 47.0943 41.5508 46.0946 41.7633C45.1481 41.9649 44.4598 42.7851 44.4258 43.7524C44.3895 44.7736 43.9209 45.7354 43.1393 46.3913C42.3576 47.0472 41.3293 47.3422 40.3169 47.1999C39.3583 47.0648 38.4311 47.6009 38.0685 48.4979C37.6857 49.4455 36.9161 50.1893 35.957 50.5381C34.9984 50.8869 33.9311 50.8122 33.0286 50.3327C32.1733 49.8784 31.1191 50.064 30.4715 50.7836C29.7876 51.5428 28.8098 51.9784 27.7897 51.9784C26.7697 51.9784 25.7919 51.5428 25.108 50.7836C24.6971 50.3272 24.1231 50.086 23.5402 50.086C23.2035 50.086 22.864 50.1662 22.5509 50.3327C21.649 50.8122 20.5811 50.8869 19.6225 50.5381C18.664 50.1893 17.8944 49.4455 17.511 48.4979C17.1484 47.6009 16.2217 47.0659 15.2626 47.1999C14.2502 47.3416 13.2219 47.0472 12.4402 46.3913C11.6586 45.7354 11.19 44.7736 11.1537 43.7524C11.1197 42.7851 10.4319 41.9649 9.48491 41.7633C8.48571 41.5508 7.61944 40.9218 7.10912 40.0385C6.59936 39.1546 6.48785 38.0906 6.80316 37.1183C7.10198 36.1977 6.73559 35.1919 5.91491 34.6788C5.04864 34.1367 4.44989 33.2501 4.27301 32.2454C4.09558 31.2407 4.35486 30.2025 4.98382 29.3966C5.57928 28.6336 5.57928 27.5635 4.98382 26.8005C4.35486 25.9947 4.09558 24.9565 4.27301 23.9518C4.44989 22.9471 5.04864 22.06 5.91491 21.5183C6.73559 21.0053 7.10198 19.9995 6.80316 19.0788C6.48785 18.1065 6.59936 17.0425 7.10912 16.1587C7.61944 15.2754 8.48516 14.6464 9.48491 14.4338C10.4314 14.2322 11.1197 13.4121 11.1537 12.4447C11.19 11.4236 11.6586 10.4617 12.4402 9.80583C13.2214 9.14995 14.2502 8.85551 15.2626 8.99724C16.2212 9.13237 17.1479 8.59624 17.511 7.69865C17.8944 6.75163 18.664 6.00786 19.6225 5.65905C20.5811 5.30968 21.6484 5.38494 22.5509 5.86449C23.4057 6.31822 24.4603 6.13256 25.108 5.4135C25.7924 4.65435 26.7697 4.21874 27.7897 4.21874C28.8104 4.21874 29.7876 4.65435 30.4715 5.4135C31.1197 6.13256 32.1738 6.31877 33.0286 5.86449C33.9311 5.38494 34.999 5.31023 35.9575 5.65905C36.9161 6.00786 37.6857 6.75163 38.0685 7.6992C38.4316 8.59624 39.3589 9.13182 40.3174 8.99724C41.3293 8.85551 42.3581 9.14995 43.1398 9.80583C43.9209 10.4617 44.3901 11.4236 44.4258 12.4447C44.4604 13.4126 45.1481 14.2322 46.0951 14.4338C47.0943 14.6464 47.9606 15.2754 48.4704 16.1587C48.9807 17.0425 49.0922 18.1065 48.7769 19.0788C48.4781 19.9995 48.8439 21.0053 49.6646 21.5183C50.5314 22.0605 51.1302 22.9476 51.307 23.9518C51.4845 24.9565 51.2252 25.9947 50.5962 26.8005C50.0002 27.5635 50.0002 28.6336 50.5957 29.3966ZM40.7827 57.7682C39.8296 57.5523 38.853 58.0187 38.4223 58.8959L35.4016 65.0516L30.8681 55.5643C31.435 55.3215 31.9733 55.0128 32.4705 54.642C34.0734 55.1232 35.8059 55.0826 37.4006 54.5025C38.9947 53.9224 40.3476 52.8392 41.2667 51.4406C42.0318 51.3967 42.7839 51.239 43.5002 50.9787L47.4695 59.2849L40.7827 57.7682ZM17.1578 58.8959C16.7974 58.1626 16.0553 57.716 15.2648 57.716C15.1099 57.716 14.9533 57.733 14.7973 57.7682L8.11053 59.2843L12.0799 50.9781C12.7962 51.239 13.5487 51.3961 14.3134 51.4406C15.2324 52.8392 16.5854 53.9219 18.1795 54.502C19.7741 55.0826 21.5067 55.1227 23.1096 54.642C23.6067 55.0123 24.145 55.3215 24.7119 55.5638L20.1784 65.051L17.1578 58.8959Z" fill="#005FEC" stroke="white" mask="url(#path-1-inside-1_46_1017)"/>
<path d="M25.4727 32.8755L25.6495 33.0522L25.8262 32.8755L36.2636 22.4381C37.2895 21.4122 38.9541 21.4122 39.98 22.4381C41.0067 23.4648 41.0067 25.1287 39.98 26.1553L27.5077 38.6277C27.0148 39.1205 26.3461 39.3977 25.6494 39.3977C24.9528 39.3977 24.2841 39.1205 23.7912 38.6277L16.02 30.8564L16.0199 30.8564C14.9934 29.8305 14.9934 28.166 16.0199 27.1401L16.0201 27.1399C17.046 26.1133 18.7105 26.1133 19.7364 27.1399L19.7365 27.14L25.4727 32.8755Z" fill="#00ECD0" stroke="white" stroke-width="0.5"/>
</svg>
