<svg width="72" height="72" viewBox="0 0 72 72" fill="none" xmlns="http://www.w3.org/2000/svg">
<path d="M59.8118 44.8995C62.8204 40.3303 64.5743 34.8651 64.5743 28.9968C64.5743 13.0078 51.566 0 35.577 0C19.5881 0 6.58026 13.0078 6.58026 28.9968C6.58026 34.8651 8.33423 40.3303 11.3423 44.8995L0 61.441L12.9787 59.0213L15.399 72L26.0953 56.4C29.0682 57.4316 32.2581 57.9935 35.577 57.9935C38.8965 57.9935 42.0864 57.4316 45.0588 56.4L55.7556 72L58.1754 59.0213L71.1541 61.441L59.8118 44.8995ZM17.6924 61.151L16.3724 54.0714L9.29333 55.392L14.0702 48.425C16.3581 50.9551 19.0854 53.0799 22.1298 54.6806L17.6924 61.151ZM10.8237 28.9968C10.8237 15.3479 21.9282 4.24347 35.577 4.24347C49.2264 4.24347 60.3309 15.3479 60.3309 28.9968C60.3309 42.6462 49.2264 53.7506 35.577 53.7506C21.9282 53.7506 10.8237 42.6462 10.8237 28.9968ZM54.7817 54.0714L53.4617 61.151L49.0248 54.6806C52.0692 53.0799 54.7965 50.9551 57.0844 48.425L61.8613 55.3914L54.7817 54.0714Z" fill="#005FEC"/>
<path d="M30.4081 34.3649L23.5087 27.4661L20.5083 30.4664L30.4081 40.3662L50.6465 20.1283L47.6462 17.1279L30.4081 34.3649Z" fill="#00ECD0"/>
</svg>
