<svg width="100" height="30" viewBox="0 0 100 30" fill="none" xmlns="http://www.w3.org/2000/svg">
<path d="M96.2963 30H3.7037C1.62963 30 0 28.35 0 26.25V3.75C0 1.65 1.62963 0 3.7037 0H96.2963C98.3704 0 100 1.65 100 3.75V26.25C100 28.35 98.3704 30 96.2963 30Z" fill="#18216D"/>
<path d="M50.4443 16.1485C48.6666 16.1485 47.2592 17.4818 47.2592 19.3337C47.2592 21.1114 48.6666 22.5188 50.4443 22.5188C52.2221 22.5188 53.6295 21.1855 53.6295 19.3337C53.6295 17.4077 52.2221 16.1485 50.4443 16.1485ZM50.4443 21.1855C49.4814 21.1855 48.6666 20.3707 48.6666 19.2596C48.6666 18.1485 49.4814 17.3337 50.4443 17.3337C51.4073 17.3337 52.2221 18.0744 52.2221 19.2596C52.2221 20.3707 51.4073 21.1855 50.4443 21.1855ZM43.5554 16.1485C41.7777 16.1485 40.3703 17.4818 40.3703 19.3337C40.3703 21.1114 41.7777 22.5188 43.5554 22.5188C45.3332 22.5188 46.7406 21.1855 46.7406 19.3337C46.7406 17.4077 45.3332 16.1485 43.5554 16.1485ZM43.5554 21.1855C42.5925 21.1855 41.7777 20.3707 41.7777 19.2596C41.7777 18.1485 42.5925 17.3337 43.5554 17.3337C44.5184 17.3337 45.3332 18.0744 45.3332 19.2596C45.3332 20.3707 44.5184 21.1855 43.5554 21.1855ZM35.3332 17.1114V18.4448H38.5184C38.4443 19.1855 38.148 19.7781 37.7777 20.1485C37.3332 20.5929 36.5925 21.1114 35.3332 21.1114C33.3332 21.1114 31.8517 19.5559 31.8517 17.5559C31.8517 15.5559 33.4073 14.0003 35.3332 14.0003C36.3703 14.0003 37.1851 14.4448 37.7777 14.9633L38.7406 14.0003C37.9258 13.2596 36.8888 12.667 35.4073 12.667C32.7406 12.667 30.4443 14.8892 30.4443 17.5559C30.4443 20.2225 32.7406 22.4448 35.4073 22.4448C36.8888 22.4448 37.9258 22.0003 38.8147 21.0374C39.7036 20.1485 39.9999 18.8892 39.9999 17.9263C39.9999 17.63 39.9999 17.3337 39.9258 17.1114H35.3332ZM68.9629 18.1485C68.6666 17.4077 67.9258 16.1485 66.2962 16.1485C64.6666 16.1485 63.3332 17.4077 63.3332 19.3337C63.3332 21.1114 64.6666 22.5188 66.4443 22.5188C67.8517 22.5188 68.7406 21.63 69.0369 21.1114L67.9999 20.3707C67.6295 20.8892 67.1851 21.2596 66.4443 21.2596C65.7036 21.2596 65.2591 20.9633 64.8888 20.2966L69.111 18.5188L68.9629 18.1485ZM64.6666 19.1855C64.6666 18.0003 65.6295 17.3337 66.2962 17.3337C66.8147 17.3337 67.3332 17.63 67.4814 18.0003L64.6666 19.1855ZM61.1851 22.2225H62.5925V12.9633H61.1851V22.2225ZM58.9629 16.8151C58.5925 16.4448 57.9999 16.0744 57.2592 16.0744C55.7036 16.0744 54.2221 17.4818 54.2221 19.2596C54.2221 21.0374 55.6295 22.3707 57.2592 22.3707C57.9999 22.3707 58.5925 22.0003 58.8888 21.63H58.9629V22.0744C58.9629 23.2596 58.2962 23.9263 57.2592 23.9263C56.4443 23.9263 55.8517 23.3337 55.7036 22.8151L54.5184 23.3337C54.8888 24.1485 55.7777 25.1855 57.3332 25.1855C58.9629 25.1855 60.2962 24.2225 60.2962 21.9263V16.2966H58.9629V16.8151ZM57.3332 21.1855C56.3703 21.1855 55.5554 20.3707 55.5554 19.2596C55.5554 18.1485 56.3703 17.3337 57.3332 17.3337C58.2962 17.3337 59.0369 18.1485 59.0369 19.2596C59.0369 20.3707 58.2962 21.1855 57.3332 21.1855ZM75.4073 12.9633H72.074V22.2225H73.4814V18.7411H75.4073C76.9629 18.7411 78.4443 17.63 78.4443 15.8522C78.4443 14.0744 76.9629 12.9633 75.4073 12.9633ZM75.4814 17.4077H73.4814V14.2225H75.4814C76.5184 14.2225 77.111 15.1114 77.111 15.7781C77.0369 16.5929 76.4443 17.4077 75.4814 17.4077ZM83.9999 16.0744C82.9629 16.0744 81.9258 16.5188 81.5554 17.4818L82.8147 18.0003C83.111 17.4818 83.5554 17.3337 84.074 17.3337C84.8147 17.3337 85.4814 17.7781 85.5554 18.5188V18.5929C85.3332 18.4448 84.7406 18.2225 84.148 18.2225C82.8147 18.2225 81.4814 18.9633 81.4814 20.2966C81.4814 21.5559 82.5925 22.3707 83.7777 22.3707C84.7406 22.3707 85.1851 21.9263 85.5554 21.4818H85.6295V22.2225H86.9629V18.667C86.8147 17.0374 85.5554 16.0744 83.9999 16.0744ZM83.8517 21.1855C83.4073 21.1855 82.7406 20.9633 82.7406 20.3707C82.7406 19.63 83.5554 19.4077 84.2221 19.4077C84.8147 19.4077 85.111 19.5559 85.4814 19.704C85.3332 20.5929 84.5925 21.1855 83.8517 21.1855ZM91.6295 16.2966L90.074 20.2966H89.9999L88.3703 16.2966H86.8888L89.3332 21.9263L87.9258 25.0374H89.3332L93.111 16.2966H91.6295ZM79.1851 22.2225H80.5925V12.9633H79.1851V22.2225Z" fill="white"/>
<path d="M7.70352 5.55566C7.4813 5.77789 7.40723 6.14826 7.40723 6.5927V22.9631C7.40723 23.4075 7.55537 23.7779 7.7776 24.0001L7.85167 24.0742L17.0369 14.889V14.7408L7.70352 5.55566Z" fill="url(#paint0_linear_46_1502)"/>
<path d="M19.9999 18.0004L16.9629 14.9634V14.7411L19.9999 11.7041L20.074 11.7782L23.7036 13.8523C24.7407 14.4448 24.7407 15.4078 23.7036 16.0004L19.9999 18.0004Z" fill="url(#paint1_linear_46_1502)"/>
<path d="M20.074 17.9256L16.9629 14.8145L7.70361 24.0737C8.07398 24.4441 8.5925 24.4441 9.25917 24.1478L20.074 17.9256Z" fill="url(#paint2_linear_46_1502)"/>
<path d="M20.074 11.7041L9.25917 5.556C8.5925 5.18563 8.07398 5.2597 7.70361 5.63007L16.9629 14.8153L20.074 11.7041Z" fill="url(#paint3_linear_46_1502)"/>
<path opacity="0.2" d="M19.9999 17.8516L9.25917 23.9256C8.66658 24.296 8.14806 24.2219 7.77769 23.9256L7.70361 23.9997L7.77769 24.0738C8.14806 24.3701 8.66658 24.4442 9.25917 24.0738L19.9999 17.8516Z" fill="#18216D"/>
<path opacity="0.12" d="M7.70352 23.9256C7.4813 23.7033 7.40723 23.333 7.40723 22.8885V22.9626C7.40723 23.407 7.55537 23.7774 7.7776 23.9996V23.9256H7.70352ZM23.7035 15.7774L19.9998 17.8515L20.0739 17.9256L23.7035 15.8515C24.222 15.5552 24.4443 15.1848 24.4443 14.8145C24.4443 15.1848 24.148 15.4811 23.7035 15.7774Z" fill="#18216D"/>
<path opacity="0.25" d="M9.25908 5.62936L23.7035 13.8516C24.148 14.1479 24.4443 14.4442 24.4443 14.8145C24.4443 14.4442 24.222 14.0738 23.7035 13.7775L9.25908 5.55529C8.22204 4.96269 7.40723 5.40714 7.40723 6.59232V6.6664C7.40723 5.55529 8.22204 5.03677 9.25908 5.62936Z" fill="white"/>
<path d="M34.2218 9.03725C33.7774 9.4817 33.2589 9.70392 32.5922 9.70392C31.9255 9.70392 31.407 9.4817 30.9626 9.03725C30.5181 8.59281 30.2959 8.07429 30.2959 7.40762C30.2959 6.74096 30.5181 6.22244 30.9626 5.77799C31.407 5.33355 31.9255 5.11133 32.5922 5.11133C33.2589 5.11133 33.7774 5.33355 34.2218 5.77799C34.6663 6.22244 34.8885 6.74096 34.8885 7.40762C34.8885 8.07429 34.6663 8.59281 34.2218 9.03725ZM31.407 8.66688C31.7033 8.96318 32.1477 9.1854 32.5922 9.1854C33.0366 9.1854 33.4811 9.03725 33.7774 8.66688C34.0737 8.37059 34.2959 7.92614 34.2959 7.40762C34.2959 6.88911 34.1477 6.44466 33.7774 6.14837C33.4811 5.85207 33.0366 5.62985 32.5922 5.62985C32.1477 5.62985 31.7033 5.77799 31.407 6.14837C31.1107 6.44466 30.8885 6.88911 30.8885 7.40762C30.8885 7.92614 31.0366 8.37059 31.407 8.66688ZM35.7033 9.62985V5.1854H36.37L38.5181 8.66688V5.1854H39.1107V9.62985H38.5181L36.2959 6.00022V9.62985H35.7033ZM41.6292 9.62985H41.0366V5.70392H39.7774V5.1854H42.8144V5.70392H41.5552V9.62985H41.6292ZM43.6292 9.62985V5.1854H44.9626C45.6292 5.1854 46.2218 5.40762 46.5922 5.77799C47.0366 6.22244 47.1848 6.74096 47.1848 7.40762C47.1848 8.07429 46.9626 8.59281 46.5922 9.03725C46.1477 9.4817 45.6292 9.62985 44.9626 9.62985H43.6292ZM44.1477 9.11133H44.9626C45.4811 9.11133 45.8515 8.96318 46.1477 8.66688C46.444 8.37059 46.5922 7.92614 46.5922 7.40762C46.5922 6.88911 46.444 6.44466 46.1477 6.14837C45.8515 5.85207 45.407 5.70392 44.9626 5.70392H44.1477V9.11133ZM50.5922 5.70392H48.5922V7.11133H50.444V7.62985H48.5922V9.03725H50.5922V9.62985H47.9996V5.1854H50.5922V5.70392ZM54.8144 5.1854L53.1848 7.11133L54.9626 9.62985H54.2959L52.8144 7.55577L52.1477 8.37059V9.62985H51.5552V5.1854H52.1477V7.4817L54.0737 5.1854H54.8144ZM56.9626 9.62985V5.1854H57.5552V7.11133H59.7774V5.1854H60.37V9.62985H59.7774V7.62985H57.5552V9.62985H56.9626ZM63.9996 5.70392H61.9996V7.11133H63.8514V7.62985H61.9996V9.03725H63.9996V9.62985H61.407V5.1854H63.9996V5.70392ZM66.37 9.62985H65.7774V5.70392H64.5181V5.1854H67.5552V5.70392H66.2959V9.62985H66.37ZM73.407 9.03725C72.9626 9.4817 72.444 9.70392 71.7774 9.70392C71.1107 9.70392 70.5922 9.4817 70.1477 9.03725C69.7033 8.59281 69.4811 8.07429 69.4811 7.40762C69.4811 6.74096 69.7033 6.22244 70.1477 5.77799C70.5922 5.33355 71.1107 5.11133 71.7774 5.11133C72.444 5.11133 72.9626 5.33355 73.407 5.77799C73.8515 6.22244 74.0737 6.74096 74.0737 7.40762C74.0737 8.07429 73.8515 8.59281 73.407 9.03725ZM70.5922 8.66688C70.8885 8.96318 71.3329 9.1854 71.7774 9.1854C72.2218 9.1854 72.6663 9.03725 72.9626 8.66688C73.2589 8.37059 73.4811 7.92614 73.4811 7.40762C73.4811 6.88911 73.3329 6.44466 72.9626 6.14837C72.6663 5.85207 72.2218 5.62985 71.7774 5.62985C71.3329 5.62985 70.8885 5.77799 70.5922 6.14837C70.2959 6.44466 70.0737 6.88911 70.0737 7.40762C70.0737 7.92614 70.2218 8.37059 70.5922 8.66688ZM75.407 9.62985H74.8144V5.1854H76.2959C76.6663 5.1854 76.9626 5.33355 77.2589 5.55577C77.5552 5.77799 77.7033 6.14837 77.7033 6.51874C77.7033 6.88911 77.5552 7.1854 77.2589 7.4817C76.9626 7.70392 76.6663 7.85207 76.2959 7.85207H75.3329V9.62985H75.407ZM75.407 7.25948H76.37C76.5922 7.25948 76.8144 7.1854 76.9626 7.03725C77.1107 6.88911 77.1848 6.66688 77.1848 6.51874C77.1848 6.37059 77.1107 6.14837 76.9626 6.00022C76.8144 5.85207 76.5922 5.77799 76.37 5.77799H75.407V7.25948Z" fill="white"/>
<path fill-rule="evenodd" clip-rule="evenodd" d="M32.5925 5.18526C31.9455 5.18526 31.4458 5.3997 31.0153 5.83023C30.5848 6.26075 30.3703 6.76042 30.3703 7.40748C30.3703 8.05454 30.5848 8.55421 31.0153 8.98473C31.4458 9.41526 31.9455 9.6297 32.5925 9.6297C33.2396 9.6297 33.7393 9.41526 34.1698 8.98473C34.6003 8.55421 34.8148 8.05454 34.8148 7.40748C34.8148 6.76042 34.6003 6.26075 34.1698 5.83023C33.7393 5.3997 33.2396 5.18526 32.5925 5.18526ZM30.9105 5.72547C31.3689 5.26711 31.9063 5.03711 32.5925 5.03711C33.2788 5.03711 33.8162 5.26711 34.2745 5.72547C34.7329 6.18384 34.9629 6.72121 34.9629 7.40748C34.9629 8.09375 34.7329 8.63112 34.2745 9.08949C33.8162 9.54785 33.2788 9.77785 32.5925 9.77785C31.9063 9.77785 31.3689 9.54785 30.9105 9.08949C30.4522 8.63112 30.2222 8.09375 30.2222 7.40748C30.2222 6.72121 30.4522 6.18384 30.9105 5.72547ZM71.7777 5.18526C71.1307 5.18526 70.631 5.3997 70.2005 5.83023C69.7699 6.26075 69.5555 6.76042 69.5555 7.40748C69.5555 8.05454 69.7699 8.55421 70.2005 8.98473C70.631 9.41526 71.1307 9.6297 71.7777 9.6297C72.4248 9.6297 72.9244 9.41526 73.355 8.98473C73.7855 8.5542 73.9999 8.05454 73.9999 7.40748C73.9999 6.76042 73.7855 6.26075 73.355 5.83023C72.9244 5.3997 72.4248 5.18526 71.7777 5.18526ZM70.0957 5.72547C70.5541 5.26711 71.0914 5.03711 71.7777 5.03711C72.464 5.03711 73.0014 5.26711 73.4597 5.72547C73.9181 6.18383 74.1481 6.72121 74.1481 7.40748C74.1481 8.09375 73.9181 8.63112 73.4597 9.08949C73.0014 9.54785 72.464 9.77785 71.7777 9.77785C71.0914 9.77785 70.5541 9.54785 70.0957 9.08949C69.6374 8.63112 69.4074 8.09375 69.4074 7.40748C69.4074 6.72121 69.6374 6.18384 70.0957 5.72547ZM35.6296 5.11118H36.4116L38.4444 8.40562V5.11118H39.1851V9.70378H38.477L36.3703 6.26292V9.70378H35.6296V5.11118ZM35.7777 5.25933V9.55563H36.2222V5.73722L38.56 9.55563H39.037V5.25933H38.5925V8.92785L36.329 5.25933H35.7777ZM39.7036 5.11118H42.8888V5.77785H41.6296L41.6296 9.70378H40.9629V5.77785H39.7036V5.11118ZM41.4814 9.55563H41.1111V5.6297H39.8518V5.25933H42.7407V5.6297H41.4814V9.55563ZM43.5555 5.11118H44.9629C45.6446 5.11118 46.2577 5.33825 46.6449 5.72547C47.1075 6.18805 47.2592 6.72812 47.2592 7.40748C47.2592 8.09304 47.0299 8.62802 46.6494 9.08453L46.6473 9.08711L46.6449 9.08949C46.1823 9.55207 45.6423 9.70378 44.9629 9.70378H43.5555V5.11118ZM43.7036 5.25933V9.55563H44.9629C45.6157 9.55563 46.112 9.41157 46.5378 8.9871C46.8968 8.5553 47.1111 8.05397 47.1111 7.40748C47.1111 6.75351 46.9665 6.25654 46.5402 5.83023C46.1866 5.47671 45.6146 5.25933 44.9629 5.25933H43.7036ZM47.9259 5.11118H50.6666V5.77785H48.6666V7.03711H50.5185V7.70378H48.6666V8.96303H50.6666V9.70378H47.9259V5.11118ZM48.074 5.25933V9.55563H50.5185V9.11118H48.5185V7.55563H50.3703V7.18526H48.5185V5.6297H50.5185V5.25933H48.074ZM51.4814 5.11118H52.2222V7.27797L54.0395 5.11118H54.9745L53.2787 7.11528L55.1059 9.70378H54.2581L52.8108 7.67748L52.2222 8.39689V9.70378H51.4814V5.11118ZM51.6296 5.25933V9.55563H52.074V8.344L52.8188 7.43377L54.3344 9.55563H54.82L53.0916 7.10708L54.6551 5.25933H54.1086L52.074 7.68514V5.25933H51.6296ZM56.8888 5.11118H57.6296V7.03711H59.7036V5.11118H60.4444V9.70378H59.7036V7.70378H57.6296V9.70378H56.8888V5.11118ZM57.037 5.25933V9.55563H57.4814V7.55563H59.8518V9.55563H60.2962V5.25933H59.8518V7.18526H57.4814V5.25933H57.037ZM61.3333 5.11118H64.074V5.77785H62.074V7.03711H63.9259V7.70378H62.074V8.96303H64.074V9.70378H61.3333V5.11118ZM61.4814 5.25933V9.55563H63.9259V9.11118H61.9259V7.55563H63.7777V7.18526H61.9259V5.6297H63.9259V5.25933H61.4814ZM64.4444 5.11118H67.6296V5.77785H66.3703V9.70378H65.7037V5.77785H64.4444V5.11118ZM66.2222 9.55563H65.8518V5.6297H64.5925V5.25933H67.4814V5.6297H66.2222V9.55563ZM74.7407 5.11118H76.2962C76.6891 5.11118 77.0009 5.26927 77.3036 5.49637C77.6224 5.73545 77.7777 6.13015 77.7777 6.51859C77.7777 6.91336 77.618 7.22751 77.3116 7.53393L77.3079 7.53765L77.3036 7.54081C77.0009 7.76791 76.6891 7.926 76.2962 7.926H75.4074L75.4074 9.70378H74.7407V5.11118ZM75.2592 9.55563H74.8888V5.25933H76.2962C76.6442 5.25933 76.925 5.39754 77.2148 5.61489C77.4886 5.82025 77.6296 6.16629 77.6296 6.51859C77.6296 6.86307 77.4942 7.14059 77.2105 7.42546C76.9222 7.64098 76.6425 7.77785 76.2962 7.77785H75.2592V9.55563ZM31.3521 6.09874C31.6663 5.70838 32.1338 5.55563 32.5925 5.55563C33.0586 5.55563 33.5197 5.78687 33.8272 6.09295C34.2187 6.40802 34.3703 6.87676 34.3703 7.40748C34.3703 7.94578 34.1404 8.40739 33.833 8.71622C33.5188 9.10658 33.0513 9.25933 32.5925 9.25933C32.1264 9.25933 31.6654 9.02809 31.3579 8.72201C30.9664 8.40694 30.8148 7.9382 30.8148 7.40748C30.8148 6.86918 31.0447 6.40757 31.3521 6.09874ZM32.5925 5.70378C32.1637 5.70378 31.7436 5.84648 31.4652 6.19449L31.4626 6.1977L31.4597 6.2006C31.176 6.48435 30.9629 6.91043 30.9629 7.40748C30.9629 7.91235 31.1067 8.33139 31.4536 8.6089L31.4568 8.61146L31.4597 8.61436C31.7448 8.89943 32.1712 9.11118 32.5925 9.11118C33.0214 9.11118 33.4415 8.96847 33.7199 8.62047L33.7224 8.61726L33.7253 8.61436C34.0091 8.33061 34.2222 7.90453 34.2222 7.40748C34.2222 6.90261 34.0783 6.48357 33.7314 6.20606L33.7282 6.2035L33.7253 6.2006C33.4403 5.91552 33.0139 5.70378 32.5925 5.70378ZM70.5373 6.09874C70.8514 5.70838 71.319 5.55563 71.7777 5.55563C72.2438 5.55563 72.7049 5.78687 73.0124 6.09295C73.4039 6.40802 73.5555 6.87676 73.5555 7.40748C73.5555 7.94578 73.3256 8.40739 73.0182 8.71622C72.704 9.10658 72.2365 9.25933 71.7777 9.25933C71.3116 9.25933 70.8506 9.02809 70.5431 8.722C70.1516 8.40693 69.9999 7.93819 69.9999 7.40748C69.9999 6.86918 70.2299 6.40757 70.5373 6.09874ZM71.7777 5.70378C71.3488 5.70378 70.9288 5.84648 70.6504 6.19449L70.6478 6.1977L70.6449 6.2006C70.3612 6.48435 70.1481 6.91043 70.1481 7.40748C70.1481 7.91235 70.2919 8.33139 70.6388 8.6089L70.642 8.61146L70.6449 8.61436C70.93 8.89943 71.3564 9.11118 71.7777 9.11118C72.2066 9.11118 72.6267 8.96847 72.9051 8.62047L72.9076 8.61726L72.9105 8.61436C73.1943 8.33061 73.4074 7.90453 73.4074 7.40748C73.4074 6.90261 73.2635 6.48357 72.9166 6.20606L72.9134 6.2035L72.9105 6.2006C72.6255 5.91552 72.199 5.70378 71.7777 5.70378ZM44.074 5.6297H44.9629C45.4221 5.6297 45.8871 5.78251 46.2005 6.09584C46.5147 6.4101 46.6666 6.87594 46.6666 7.40748C46.6666 7.93902 46.5147 8.40486 46.2005 8.71912C45.8882 9.0314 45.4979 9.18526 44.9629 9.18526H44.1481V9.11118H44.074V5.6297ZM44.2222 9.03711H44.9629C45.465 9.03711 45.8154 8.89467 46.0957 8.61436C46.374 8.33603 46.5185 7.91298 46.5185 7.40748C46.5185 6.90198 46.374 6.47893 46.0957 6.2006C45.8165 5.92134 45.3927 5.77785 44.9629 5.77785H44.2222V9.03711ZM75.3333 5.70378H76.3703C76.6072 5.70378 76.8501 5.78251 77.0153 5.94769C77.1782 6.11064 77.2592 6.35212 77.2592 6.51859C77.2592 6.68506 77.1782 6.92654 77.0153 7.08949C76.8501 7.25467 76.6072 7.33341 76.3703 7.33341H75.3333V5.70378ZM75.4814 5.85192V7.18526H76.3703C76.5778 7.18526 76.7794 7.11584 76.9105 6.98473C77.0439 6.85138 77.1111 6.64842 77.1111 6.51859C77.1111 6.38876 77.0439 6.1858 76.9105 6.05245C76.7794 5.92134 76.5778 5.85192 76.3703 5.85192H75.4814Z" fill="white"/>
<defs>
<linearGradient id="paint0_linear_46_1502" x1="16.148" y1="6.45196" x2="3.71611" y2="18.8831" gradientUnits="userSpaceOnUse">
<stop stop-color="#00A0FF"/>
<stop offset="0.007" stop-color="#00A1FF"/>
<stop offset="0.26" stop-color="#00BEFF"/>
<stop offset="0.512" stop-color="#00D2FF"/>
<stop offset="0.76" stop-color="#00DFFF"/>
<stop offset="1" stop-color="#00E3FF"/>
</linearGradient>
<linearGradient id="paint1_linear_46_1502" x1="25.0621" y1="14.816" x2="7.13845" y2="14.816" gradientUnits="userSpaceOnUse">
<stop stop-color="#FFE000"/>
<stop offset="0.409" stop-color="#FFBD00"/>
<stop offset="0.775" stop-color="#FFA500"/>
<stop offset="1" stop-color="#FF9C00"/>
</linearGradient>
<linearGradient id="paint2_linear_46_1502" x1="18.3903" y1="16.5152" x2="1.5325" y2="33.373" gradientUnits="userSpaceOnUse">
<stop stop-color="#FF3A44"/>
<stop offset="1" stop-color="#C31162"/>
</linearGradient>
<linearGradient id="paint3_linear_46_1502" x1="5.40509" y1="0.130815" x2="12.9332" y2="7.65896" gradientUnits="userSpaceOnUse">
<stop stop-color="#32A071"/>
<stop offset="0.069" stop-color="#2DA771"/>
<stop offset="0.476" stop-color="#15CF74"/>
<stop offset="0.801" stop-color="#06E775"/>
<stop offset="1" stop-color="#00F076"/>
</linearGradient>
</defs>
</svg>
